<?xml version="1.0" encoding="utf-8"?>
<!-- Generator: Adobe Illustrator 27.5.0, SVG Export Plug-In . SVG Version: 6.00 Build 0)  -->
<svg version="1.1" id="Layer_1" xmlns="http://www.w3.org/2000/svg" xmlns:xlink="http://www.w3.org/1999/xlink" x="0px" y="0px"
	 viewBox="0 0 2608 2000" style="enable-background:new 0 0 2608 2000;" xml:space="preserve">
<rect y="0" style="fill:#FFFFFF;" width="2608" height="2000"/>
<g>
	<g>
		<g>
			<g>
				<path style="fill:#FFEFE0;" d="M673.342,1772.458l-146.47-6.834c0,0-294.838-231.009-260.166-776.156
					c34.673-545.147,572.187-799.649,747.705-843.634c175.518-43.984,266.913-10.572,386.789,73.564
					c112.807,79.173,268.92,49.42,421.361,77.443c127.233,23.389,327.993,103.342,452.388,355.524
					c120.796,244.885,177.932,652.828-147.787,1109.828L673.342,1772.458z"/>
			</g>
		</g>
	</g>
	<g>
		<g>
			<g>
				<g>
					<g>
						<g>
							<path style="fill:#7FC6A6;" d="M1530.425,1547.559c0,0,146.664-299.918,232.966-143.902c0,0,126.146-266.952,246.731-185.837
								c98.424,66.208-36.518,377.581-36.518,377.581s153.624-147.881,103.373,71.787c0,0,64.608-48.974,106.245-33.101
								c41.636,15.872,5.743,139.411,5.743,139.411h-628.672L1530.425,1547.559z"/>
						</g>
					</g>
				</g>
			</g>
		</g>
		<g>
			<g>
				<g>
					<g>
						<g>
							<g>
								<path style="fill:#7FC6A6;" d="M1326.053,1775.156c-8.71-6.968-151.552-283.278-245.619-152.63
									c0,0-141.1-479.043-334.459-456.398c-193.359,22.646-29.614,378.009-29.614,378.009s-165.488-67.937-127.164,111.486
									c0,0-210.779-38.323-195.101,113.228L1326.053,1775.156z"/>
							</g>
						</g>
					</g>
				</g>
				<g>
					<g>
						<g>
							<g>
								
									<ellipse transform="matrix(0.7699 -0.6382 0.6382 0.7699 -764.0607 662.7107)" style="fill:#7FC6A6;" cx="536.958" cy="1390.887" rx="39.194" ry="73.163"/>
							</g>
						</g>
					</g>
				</g>
				<g>
					<g>
						<g>
							<g>
								
									<ellipse transform="matrix(0.7699 -0.6382 0.6382 0.7699 -842.9791 671.6732)" style="fill:#7FC6A6;" cx="509.929" cy="1504.807" rx="23.202" ry="43.311"/>
							</g>
						</g>
					</g>
				</g>
			</g>
		</g>
		<g>
			<g>
				<g>
					<g>
						<path d="M2021.125,1091.498c-0.148,1.01-1.017,1.786-2.07,1.788c-1.156,0-2.094-0.937-2.095-2.093
							c-0.028-29.335-17.082-46.821-17.255-46.994c-0.815-0.819-0.814-2.146,0.005-2.96c0.818-0.816,2.141-0.816,2.958,0.001
							c0.753,0.754,18.449,18.811,18.479,49.949C2021.148,1091.295,2021.14,1091.397,2021.125,1091.498z"/>
					</g>
				</g>
			</g>
			<g>
				<g>
					<g>
						<path d="M2010.023,1114.733c-0.152,1.039-1.063,1.82-2.138,1.786c-1.155-0.037-2.063-1.004-2.026-2.158
							c0.958-30.259-12.191-51.164-12.323-51.372c-0.623-0.974-0.34-2.269,0.633-2.891c0.973-0.625,2.266-0.343,2.891,0.629
							c0.572,0.89,13.987,22.145,12.985,53.766C2010.042,1114.575,2010.034,1114.655,2010.023,1114.733z"/>
					</g>
				</g>
			</g>
		</g>
	</g>
	<g>
		<g>
			<g>
				<g>
					<path style="fill:#49263E;" d="M2283.058,1780.074H296.823c-2.644,0-4.787-3.41-4.787-7.615c0-4.205,2.143-7.615,4.787-7.615
						h1986.235c2.644,0,4.787,3.41,4.787,7.615C2287.845,1776.664,2285.702,1780.074,2283.058,1780.074z"/>
				</g>
			</g>
		</g>
	</g>
	<g>
		<g>
			<g>
				<g>
					<g>
						<g>
							<g>
								<g>
									<g>
										<g>
											<g>
												<g>
													<g>
														<polygon style="fill:#FE9F73;" points="1284.039,1142.277 1325.515,1142.849 1326.167,1099.42 1284.862,1093.751 
																													"/>
													</g>
												</g>
											</g>
										</g>
									</g>
								</g>
							</g>
						</g>
					</g>
				</g>
			</g>
			<g>
				<g>
					<g>
						<g>
							<g>
								<g>
									<g>
										<g>
											<g>
												<g>
													<g>
														<polygon style="fill:#FE9F73;" points="1423.687,1130.925 1465.199,1122.679 1456.538,1080.093 1414.102,1083.32 
																													"/>
													</g>
												</g>
											</g>
										</g>
									</g>
								</g>
							</g>
						</g>
					</g>
				</g>
			</g>
			<g>
				<g>
					<g>
						<g>
							<g>
								<g>
									<g>
										<g>
											<g>
												<path style="fill:#33192C;" d="M1356.483,766.313c-1.546,44.848-8.274,220.283-22.418,335.063
													c-0.932,7.566-7.437,13.274-15.167,13.254c-8.559-0.022-20.463-1.028-33.654-4.999
													c-6.376-1.919-10.802-7.636-10.91-14.207l-5.751-349.248c-0.014-0.849,0.045-1.697,0.175-2.535l0.269-1.725
													c1.482-9.507,11.493-15.234,20.601-11.785l57.052,21.605C1352.769,754.042,1356.705,759.888,1356.483,766.313z"/>
											</g>
										</g>
									</g>
								</g>
							</g>
						</g>
					</g>
				</g>
			</g>
			<g>
				<g>
					<g>
						<g>
							<g>
								<g>
									<g>
										<g>
											<g>
												<path style="fill:#49263E;" d="M1416.502,746.091c0,0,0.77,89.105,13.528,187.376
													c7.083,54.558,27.329,111.221,30.603,158.749c0.434,6.301-3.869,11.938-10.122,13.308
													c-8.853,1.94-22.5,3.769-38.452,1.924c-5.41-0.625-9.851-4.526-11.087-9.756l-44.48-150.384l-26.953-152.049
													l-28.897-82.687L1416.502,746.091z"/>
											</g>
										</g>
									</g>
								</g>
							</g>
						</g>
					</g>
				</g>
			</g>
			<g>
				<g>
					<g>
						<g>
							<path d="M1399.361,1092.892c0.061,0,0.122-0.008,0.183-0.026c0.347-0.099,0.546-0.458,0.445-0.8l-42.859-144.904
								l-20.093-113.35c-0.062-0.352-0.401-0.581-0.757-0.525c-0.356,0.062-0.594,0.395-0.532,0.746l20.106,113.42l0.01,0.035
								l42.869,144.939C1398.817,1092.71,1399.078,1092.892,1399.361,1092.892z"/>
						</g>
					</g>
				</g>
			</g>
			<g>
				<g>
					<g>
						<path d="M1444.192,1005.273c0.049,0,0.098-0.005,0.148-0.017c0.353-0.08,0.573-0.427,0.492-0.776
							c-4.899-20.925-11.988-62.04-15.778-84.685c-0.109-0.654-0.184-1.101-0.258-1.403h-0.002h0.002
							c-0.001-0.003-0.001-0.005-0.001-0.005c-0.002-0.296-0.036-0.714-0.086-1.313l-9.834-117.667
							c-0.03-0.356-0.348-0.628-0.708-0.591c-0.361,0.029-0.63,0.341-0.6,0.698c0.099,1.179,9.836,117.563,9.943,118.982
							c0,0.013,0.002,0.028,0.003,0.041l0.073,0.633l0.033-0.002c0.037,0.221,0.084,0.501,0.141,0.839
							c3.792,22.661,10.887,63.806,15.793,84.766C1443.623,1005.071,1443.893,1005.273,1444.192,1005.273z"/>
					</g>
				</g>
			</g>
			<g>
				<g>
					<g>
						<path d="M1274.139,1084.225c0.003,0,0.007,0,0.011,0c0.362-0.006,0.652-0.3,0.646-0.657l-4.661-283.086
							c-0.006-0.357-0.283-0.654-0.667-0.637c-0.362,0.006-0.652,0.3-0.646,0.657l4.661,283.086
							C1273.488,1083.942,1273.781,1084.225,1274.139,1084.225z"/>
					</g>
				</g>
			</g>
			<g>
				<path style="fill:#FEC786;" d="M1326.463,1148.038h-36.372l-14.747-15.836l-26.972,15.836h-5.809
					c-2.002,0-3.837,1.335-4.214,3.273c-0.507,2.608,1.506,4.889,4.061,4.889h84.572c0.622,0,1.125-0.497,1.125-1.109v-5.432
					C1328.107,1148.764,1327.371,1148.038,1326.463,1148.038z"/>
			</g>
			<g>
				<path style="fill:#49263E;" d="M1326.142,1148.084v-14.719c0,0-6.125-8.129-15.452-3.98c0,0-14.107,9.866-26.542-2.073
					l-30.881,13.504c0,0-8.467,2.79-10.76,7.268H1326.142z"/>
			</g>
			<g>
				<g>
					<g>
						<rect x="1325.832" y="1133.365" width="0.619" height="14.646"/>
					</g>
				</g>
			</g>
			<g>
				<g>
					<g>
						<path d="M1298.047,1133.525c-1.182,0-1.894-0.099-1.917-0.103l0.092-0.603c0.072,0.009,7.361,1.017,14.293-3.685l0.351,0.503
							C1305.899,1133.006,1300.748,1133.525,1298.047,1133.525z"/>
					</g>
				</g>
			</g>
			<g>
				<g>
					<g>
						<polygon points="1318.626,1145.335 1318.28,1144.828 1322.224,1142.206 1322.57,1142.713 						"/>
					</g>
				</g>
			</g>
			<g>
				<g>
					<g>
						<polygon points="1315.797,1144.593 1315.451,1144.087 1319.395,1141.465 1319.741,1141.971 						"/>
					</g>
				</g>
			</g>
			<g>
				<g>
					<g>
						<g>
							<g>
								<g>
									<g>
										<g>
											<g>
												<path d="M1239.532,1155.491c-0.999-0.835-1.571-2.054-1.571-3.345c0-2.418,1.996-4.386,4.449-4.386h83.622
													c1.315,0,2.385,1.055,2.385,2.351v4.069h-0.619v-4.069c0-0.96-0.792-1.741-1.766-1.741h-83.622
													c-2.112,0-3.83,1.693-3.83,3.776c0,1.111,0.493,2.16,1.353,2.88L1239.532,1155.491z"/>
											</g>
										</g>
									</g>
								</g>
							</g>
						</g>
					</g>
				</g>
			</g>
			<g>
				<g>
					<g>
						<path d="M1242.689,1148.196l-0.56-0.26c0.069-0.145,1.763-3.567,8.084-6.224c6.212-2.612,33.532-14.558,33.807-14.678
							l0.252,0.558c-0.276,0.12-27.601,12.068-33.816,14.681C1244.375,1144.83,1242.705,1148.163,1242.689,1148.196z"/>
					</g>
				</g>
			</g>
			<g>
				<path style="fill:#FEC786;" d="M1467.181,1125.28l-34.953,9.918l-18.615-11.197l-21.476,22.573l-5.583,1.584
					c-1.924,0.546-3.313,2.329-3.131,4.294c0.244,2.645,2.819,4.287,5.274,3.591l81.273-23.062c0.597-0.169,0.942-0.784,0.77-1.373
					l-1.524-5.219C1468.965,1125.529,1468.054,1125.032,1467.181,1125.28z"/>
			</g>
			<g>
				<path style="fill:#49263E;" d="M1466.885,1125.412l-4.13-14.145c0,0-8.167-6.141-15.966,0.389c0,0-10.788,13.328-26.089,5.245
					l-25.887,21.398c0,0-7.354,4.99-8.301,9.918L1466.885,1125.412z"/>
			</g>
			<g>
				<g>
					<g>
						<polygon points="1467.162,1125.257 1466.567,1125.426 1462.458,1111.352 1463.053,1111.183 						"/>
					</g>
				</g>
			</g>
			<g>
				<g>
					<g>
						<path d="M1435.801,1119.083c-1.136,0.322-1.848,0.421-1.871,0.424l-0.081-0.605c0.072-0.011,7.36-1.03,12.702-7.439
							l0.478,0.388C1443.201,1116.443,1438.397,1118.346,1435.801,1119.083z"/>
					</g>
				</g>
			</g>
			<g>
				<g>
					<g>
						<polygon points="1458.891,1124.82 1458.417,1124.427 1461.472,1120.832 1461.946,1121.224 						"/>
					</g>
				</g>
			</g>
			<g>
				<g>
					<g>
						<polygon points="1455.965,1124.878 1455.491,1124.486 1458.545,1120.891 1459.019,1121.282 						"/>
					</g>
				</g>
			</g>
			<g>
				<g>
					<g>
						<g>
							<g>
								<g>
									<g>
										<g>
											<g>
												<path d="M1385.733,1156.147c-1.194-0.53-2.086-1.545-2.448-2.786c-0.679-2.324,0.688-4.759,3.045-5.428l80.36-22.803
													c1.264-0.359,2.588,0.364,2.952,1.609l1.142,3.91l-0.595,0.169l-1.142-3.91c-0.27-0.923-1.25-1.457-2.185-1.192
													l-80.36,22.803c-2.03,0.576-3.205,2.672-2.621,4.673c0.312,1.067,1.08,1.942,2.108,2.399L1385.733,1156.147z"/>
											</g>
										</g>
									</g>
								</g>
							</g>
						</g>
					</g>
				</g>
			</g>
			<g>
				<g>
					<g>
						<path d="M1386.72,1148.276l-0.611-0.098c0.026-0.158,0.694-3.909,6.022-8.186c5.237-4.203,28.14-23.134,28.37-23.324
							l0.398,0.468c-0.231,0.191-23.138,19.124-28.377,23.33C1387.396,1144.582,1386.726,1148.24,1386.72,1148.276z"/>
					</g>
				</g>
			</g>
			<g>
				<g>
					<g>
						<g>
							<path style="fill:#FE9F73;" d="M1271.481,554.753c0,0-20.296-33.793-22.104-39.012
								c-4.085-11.795-15.041-120.173-15.041-120.173l32.621-2.296l18.16,85.36l24.327,53.243L1271.481,554.753z"/>
						</g>
					</g>
				</g>
			</g>
			<g>
				<g>
					<g>
						<g>
							<g>
								<path style="fill:#FE9F73;" d="M1230.546,358.407c1.565-0.586,3.313,0.227,3.998,1.751l4.266,9.48
									c0.134,0.297,0.442,0.476,0.766,0.446l0,0c0.478-0.045,0.796-0.516,0.659-0.976l-4.389-14.712
									c-0.503-1.685,0.518-3.199,2.27-3.364h0c1.751-0.165,3.595,1.08,4.098,2.766l4.476,15.002
									c0.104,0.348,0.439,0.575,0.801,0.541l0.256-0.024c0.419-0.039,0.726-0.411,0.687-0.83l-1.624-17.289
									c-0.156-1.663,0.962-3.234,2.612-3.497c1.808-0.289,3.455,1.01,3.623,2.803l1.634,17.396
									c0.039,0.419,0.411,0.727,0.83,0.687l0.813-0.076c0.381-0.036,0.676-0.348,0.69-0.731l0.596-16.223
									c0.061-1.67,1.375-3.081,3.045-3.128c1.83-0.051,3.294,1.45,3.228,3.251c0,0,0.42,24.786,0.802,28.655l6.985-5.783
									c1.105-1.334,3.082-1.52,4.416-0.415l0,0c1.334,1.105,1.52,3.082,0.415,4.416l-10.988,16.947
									c-0.72,0.87-2.971,1.088-4.822,0.83c-18.244,3.13-21.08,3.462-26.077,3.853l-1.185-19.749
									c-0.342-5.699-1.718-11.288-4.06-16.494l-0.588-1.307C1228.04,360.991,1228.831,359.049,1230.546,358.407z"/>
							</g>
						</g>
					</g>
				</g>
			</g>
			<g>
				<g>
					<g>
						<g>
							<g>
								<path style="fill:#FE9F73;" d="M1456.423,575.583c0,0,26.277-29.384,29.032-34.171
									c6.226-10.819,37.326-115.215,37.326-115.215l-31.61-8.377l-33.856,80.436l-33.886,47.732L1456.423,575.583z"/>
							</g>
						</g>
					</g>
				</g>
				<g>
					<g>
						<g>
							<g>
								<g>
									<path style="fill:#FE9F73;" d="M1533.478,390.407c-1.427-0.869-3.297-0.399-4.256,0.969l-5.969,8.511
										c-0.187,0.267-0.523,0.385-0.836,0.294l0,0c-0.461-0.134-0.685-0.656-0.464-1.083l7.072-13.627
										c0.81-1.561,0.091-3.24-1.598-3.73l0,0c-1.689-0.49-3.734,0.386-4.545,1.947l-7.211,13.896
										c-0.167,0.323-0.54,0.482-0.889,0.381l-0.247-0.072c-0.404-0.117-0.637-0.54-0.519-0.944l4.839-16.677
										c0.466-1.604-0.339-3.357-1.91-3.925c-1.722-0.623-3.583,0.343-4.085,2.073l-4.869,16.78
										c-0.117,0.404-0.54,0.637-0.944,0.519l-0.784-0.228c-0.367-0.107-0.599-0.469-0.541-0.847l2.459-16.046
										c0.253-1.651-0.772-3.284-2.404-3.644c-1.788-0.394-3.508,0.806-3.781,2.587c0,0-5.064,24.267-6.165,27.996l-5.776-6.991
										c-0.835-1.518-2.742-2.071-4.26-1.236l0,0c-1.518,0.835-2.071,2.742-1.236,4.26l7.613,18.708
										c0.544,0.989,2.714,1.626,4.58,1.72c17.333,6.498,20.056,7.357,24.891,8.679l4.87-19.176
										c1.405-5.533,3.806-10.765,7.083-15.439l0.823-1.174C1535.454,393.416,1535.042,391.359,1533.478,390.407z"/>
								</g>
							</g>
						</g>
					</g>
				</g>
			</g>
			<g>
				<g>
					<g>
						<g>
							<g>
								<g>
									<path style="fill:#FE9F73;" d="M1362.844,496.238l-9.281,23.767c0,0-3.472,7.903,3.166,11.653l-7.952,15.041
										c-2.044,3.794,1.303,3.703,4.657,6.41c1.64,1.323,3.704,2.628,6.237,3.617c8.034,3.137,14.739-1.189,16.584-3.94
										c1.846-2.751,5.458-17.93,5.458-17.93l3.007-6.978l9.788-27.763L1362.844,496.238z"/>
								</g>
							</g>
						</g>
					</g>
				</g>
				<g>
					<g>
						<g>
							<g>
								<g>
									<path style="fill:#49263E;" d="M1377.6,515.696c0.083,0.033,0.179,0.034,0.268-0.003c0.183-0.076,0.27-0.286,0.194-0.469
										c-0.027-0.066-2.792-6.574-8.323-4.827c-0.189,0.06-0.294,0.261-0.234,0.451c0.059,0.19,0.261,0.295,0.451,0.234
										c4.901-1.547,7.341,4.172,7.443,4.416C1377.438,515.593,1377.512,515.662,1377.6,515.696z"/>
								</g>
							</g>
						</g>
					</g>
				</g>
				<g>
					<g>
						<g>
							<g>
								<g>
									<path style="fill:#49263E;" d="M1364.585,508.299c0.094,0.037,0.202,0.034,0.298-0.017
										c0.175-0.092,0.243-0.309,0.151-0.485c-0.089-0.17-2.216-4.148-4.911-3.205c-0.187,0.065-0.286,0.27-0.221,0.458
										c0.065,0.188,0.27,0.286,0.458,0.221c2.111-0.738,4.018,2.825,4.037,2.861
										C1364.44,508.212,1364.507,508.269,1364.585,508.299z"/>
								</g>
							</g>
						</g>
					</g>
				</g>
				<g>
					<g>
						<g>
							<g>
								<g>
									<path d="M1370.302,514.406c-0.217,0.555,0.057,1.18,0.612,1.396c0.555,0.216,1.18-0.057,1.396-0.612
										c0.216-0.555-0.057-1.18-0.612-1.396C1371.144,513.577,1370.519,513.851,1370.302,514.406z"/>
								</g>
							</g>
						</g>
					</g>
				</g>
				<g>
					<g>
						<g>
							<g>
								<g>
									<path d="M1360.02,509.233c-0.217,0.555,0.057,1.18,0.612,1.397c0.555,0.216,1.18-0.057,1.396-0.612
										c0.217-0.555-0.057-1.18-0.612-1.396C1360.862,508.404,1360.236,508.678,1360.02,509.233z"/>
								</g>
							</g>
						</g>
					</g>
				</g>
				<g>
					<g>
						<g>
							<g>
								<g>
									<path style="fill:#49263E;" d="M1393.056,501.07l-8.702,5.746c0,0-19.554-0.036-25.207-11.245
										c-5.653-11.209-1.51-13.915,2.568-16.829c2.01-1.437,9.547-3.016,15.634,3.129c3.323,3.354,8.375-0.811,12.016,3.697
										s7.358,11.305,6.023,12.898C1394.052,500.06,1393.056,501.07,1393.056,501.07z"/>
								</g>
							</g>
						</g>
					</g>
				</g>
				<g>
					<g>
						<g>
							<g>
								<g>
									<path style="fill:#49263E;" d="M1394.024,497.591c0,0,7.874,2.646,7.126,10.927c-0.748,8.281-5.17,11.044-6.11,13.233
										c-0.94,2.189-5.275,17.728-15.336,12.513l6.809-25.804l7.493-8.406L1394.024,497.591z"/>
								</g>
							</g>
						</g>
					</g>
				</g>
				<g>
					<g>
						<g>
							<g>
								<g>
									<path style="fill:#FE9F73;" d="M1378.733,517.296c-1.3,3.328,0.345,7.079,3.672,8.378c3.328,1.299,7.079-0.345,8.378-3.673
										c1.299-3.328-0.345-7.079-3.673-8.378S1380.032,513.968,1378.733,517.296z"/>
								</g>
							</g>
						</g>
					</g>
				</g>
				<g>
					<g>
						<g>
							<g>
								<g>
									<path style="fill:#F07162;" d="M1383.762,523.515c1.252,0.489,2.455-0.125,3.098-0.958c0.76-0.985,0.809-2.211,0.125-3.124
										c-1.011-1.349-2.428-1.29-3.207-1.125c0.527-0.582,1.129-0.921,1.796-1.008c1.442-0.19,2.729,0.861,2.742,0.872
										c0.076,0.064,0.19,0.053,0.253-0.024c0.063-0.076,0.053-0.189-0.023-0.253c-0.057-0.047-1.416-1.16-3.016-0.952
										c-0.923,0.12-1.729,0.657-2.394,1.595l-0.373,0.526l0.592-0.257c0.084-0.037,2.061-0.87,3.344,0.842
										c0.71,0.948,0.378,2.041-0.121,2.689c-0.519,0.673-1.53,1.293-2.681,0.844c-0.011-0.005-0.022-0.01-0.034-0.014
										c-0.091-0.036-0.195,0.008-0.232,0.1c-0.037,0.092,0.007,0.197,0.099,0.234
										C1383.739,523.506,1383.75,523.511,1383.762,523.515z"/>
								</g>
							</g>
						</g>
					</g>
				</g>
				<g>
					<g>
						<g>
							<g>
								<g>
									<path style="fill:#F07162;" d="M1375.691,531.197c0,0-5.722,13.263-23.018,7.989l4.055-7.528
										C1356.729,531.658,1366.766,538.099,1375.691,531.197z"/>
								</g>
							</g>
						</g>
					</g>
				</g>
				<g>
					<g>
						<g>
							<g>
								<path style="fill:#49263E;" d="M1353.874,515.769c0,0-8.474,15.241,1.99,19.986c14.974,6.79,19.863-1.36,23.56-8.146
									l5.909-14.68l1.179-4.469l0,0c-1.558,0.8-2.818,2.076-3.598,3.645c-1.697,3.411-6.198,12.627-7.245,12.704
									C1374.191,524.918,1356.859,515.148,1353.874,515.769z"/>
							</g>
						</g>
					</g>
				</g>
				<g>
					<g>
						<g>
							<g>
								<g>
									<path style="fill:#F07162;" d="M1364.115,519.796c0.07,0.027,0.153,0.008,0.204-0.053c0.063-0.077,0.053-0.19-0.024-0.253
										l-2.922-2.42l4.144-7.482c0.048-0.087,0.017-0.196-0.07-0.244c-0.087-0.051-0.196-0.017-0.244,0.07l-4.288,7.743
										l3.152,2.61C1364.081,519.78,1364.097,519.789,1364.115,519.796z"/>
								</g>
							</g>
						</g>
					</g>
				</g>
				<g>
					<g>
						<g>
							<g>
								<g>
									<path style="fill:#FBFDFC;" d="M1365.441,524.071c-0.095-0.06-6.56-2.761-6.56-2.761s-0.235,3.018,2.166,4.029
										C1363.446,526.349,1365.441,524.071,1365.441,524.071z"/>
								</g>
							</g>
						</g>
					</g>
				</g>
			</g>
			<g>
				<g>
					<g>
						<path d="M1388.693,772.048c0.169,0.016,0.344-0.036,0.48-0.159l14.583-13.178c0.257-0.232,0.277-0.629,0.044-0.886
							c-0.232-0.256-0.628-0.277-0.886-0.045l-14.583,13.178c-0.257,0.232-0.277,0.629-0.045,0.886
							C1388.396,771.965,1388.542,772.034,1388.693,772.048z"/>
					</g>
				</g>
			</g>
			<g>
				<g>
					<g>
						<path d="M1387.992,779.447c0.167,0.016,0.34-0.035,0.476-0.156l11.005-9.783c0.259-0.23,0.282-0.626,0.052-0.885
							c-0.23-0.259-0.626-0.283-0.885-0.052l-11.005,9.783c-0.259,0.23-0.282,0.626-0.052,0.885
							C1387.692,779.363,1387.84,779.433,1387.992,779.447z"/>
					</g>
				</g>
			</g>
			<g>
				<g>
					<path style="fill:#CEEAF3;" d="M1268.603,394.619c0,0,18.493,84.634,17.841,83.764c-0.653-0.87,33.577,60.547,38.945,63.095
						c5.367,2.548,78.363,6.954,78.363,6.954l51.688-48.836l33.56-80.174c8.703,0.218,33.783,12.184,33.783,12.184l-33.589,106.077
						c-1.375,4.342-3.738,8.3-6.91,11.568c-13.754,14.17-52.447,54.317-55.564,60.719c-3.798,7.798-9.098,172.984-9.098,172.984
						c-123.78-0.52-150.857-30.286-150.857-30.286s14.798-162.138,15.106-170.522c0,0-19.963-35.851-26.473-49.736l0,0
						c0,0-4.852-9.427-7.898-17.613s-14.794-117.35-14.794-117.35C1242.93,393.749,1268.603,394.619,1268.603,394.619z"/>
				</g>
			</g>
			<g>
				<g>
					<path d="M1403.955,548.997l0.174-0.165l51.409-48.572l6.021,2.984c0.272,0.136,0.603,0.023,0.738-0.249
						c0.135-0.272,0.023-0.603-0.249-0.738l-6.708-3.326l-0.279,0.264l-51.514,48.671l-22.501-1.469
						c-0.293-0.018-0.565,0.21-0.585,0.514c-0.02,0.303,0.21,0.565,0.514,0.586L1403.955,548.997z"/>
				</g>
			</g>
			<g>
				<g>
					<path d="M1455.439,500.147c0.215,0,0.419-0.127,0.508-0.338l33.56-80.174c0.118-0.28-0.014-0.603-0.295-0.721
						c-0.28-0.117-0.603,0.015-0.721,0.295l-33.56,80.174c-0.118,0.28,0.014,0.603,0.295,0.721
						C1455.296,500.133,1455.368,500.147,1455.439,500.147z"/>
				</g>
			</g>
			<g>
				<g>
					<path d="M1419.579,728.735c0.293,0,0.538-0.232,0.549-0.529c1.928-47.491,7.088-117.494,7.139-118.195
						c0.022-0.303-0.205-0.567-0.508-0.59c-0.318-0.021-0.568,0.206-0.59,0.509c-0.052,0.702-5.213,70.723-7.141,118.232
						c-0.013,0.304,0.224,0.56,0.528,0.573C1419.564,728.735,1419.571,728.735,1419.579,728.735z"/>
				</g>
			</g>
			<g>
				<g>
					<path d="M1270.21,712.572c0.288,0,0.529-0.223,0.549-0.514c5.78-87.108,12.679-133.921,12.749-134.383
						c0.044-0.301-0.163-0.581-0.464-0.626c-0.296-0.046-0.582,0.162-0.626,0.463c-0.069,0.463-6.974,47.314-12.758,134.473
						c-0.02,0.304,0.209,0.566,0.513,0.586C1270.185,712.572,1270.198,712.572,1270.21,712.572z"/>
				</g>
			</g>
			<g>
				<g>
					<path d="M1281.87,582.698c0.092,0,0.186-0.023,0.272-0.073c0.265-0.151,0.356-0.488,0.205-0.751
						c-0.233-0.407-23.329-40.82-29.079-55.05c-0.794-1.965-1.519-3.685-2.183-5.265c-4.254-10.099-6.015-14.279-8.059-39.547
						c-0.025-0.303-0.291-0.523-0.594-0.505c-0.303,0.024-0.529,0.29-0.504,0.593c2.059,25.443,3.965,29.969,8.142,39.886
						c0.663,1.575,1.386,3.29,2.178,5.249c5.777,14.3,28.911,54.777,29.144,55.185
						C1281.493,582.598,1281.679,582.698,1281.87,582.698z"/>
				</g>
			</g>
			<g>
				<g>
					<g style="opacity:0.5;">
						<path style="fill:#9EBEE5;" d="M1318.921,770.577c8-100.204,41.684-222.756,42.023-223.982l-2.123-0.587
							c-0.34,1.228-34.08,123.977-42.096,224.395L1318.921,770.577z"/>
					</g>
				</g>
			</g>
			<g>
				<g>
					<g>
						<path style="fill:#33192C;" d="M1361.627,546.15c-2.103,2.867-4.598,4.999-6.969,7.24
							c-39.235,37.073-111.313-5.394-95.058,61.978c5.118-9.541,5.674-24.162,16.367-30.587c1.503-0.903,3.171-1.498,4.901-1.783
							C1308.905,578.38,1348.501,585.173,1361.627,546.15z"/>
					</g>
				</g>
				<g>
					<g>
						<polygon style="fill:#49263E;" points="1362.157,551.975 1357.913,554.34 1354.84,553.239 1353.618,547.243 1358.227,544.184 
							1362.714,545.53 						"/>
					</g>
				</g>
				<g>
					<g>
						<polygon style="fill:#9EBEE5;" points="1360.634,543.001 1352.822,538.91 1349.048,544.469 1353.672,551.268 
							1359.883,546.301 1362.157,553.39 1381.01,546.947 1380.011,541.554 						"/>
					</g>
				</g>
			</g>
			<g>
				<g>
					<path style="fill:#21111D;" d="M1417.629,776.234c0,0-108.131,1.92-150.335-30.043l-0.6,6.991c0,0,15.7,16.275,65.046,24.341
						c49.346,8.067,85.889,5.347,85.889,5.347V776.234z"/>
				</g>
			</g>
			<g>
				<g>
					<path style="fill:#FEC786;" d="M1330.162,769.084l-2.008,7.851c-0.187,0.731-0.921,1.182-1.658,1.018l-19.961-4.447
						c-0.791-0.176-1.267-0.985-1.036-1.762l2.3-7.751c0.209-0.703,0.926-1.126,1.642-0.967l19.669,4.347
						C1329.881,767.543,1330.358,768.318,1330.162,769.084z"/>
				</g>
			</g>
			<g>
				<g>
					<path d="M1285.066,471.657c0.039,0,0.077-0.004,0.117-0.012c0.297-0.064,0.486-0.357,0.422-0.654l-16.553-76.898l-0.419-0.023
						c-0.232-0.013-23.338-1.209-36.096,2.854c-0.29,0.092-0.45,0.402-0.358,0.692c0.092,0.29,0.402,0.451,0.692,0.358
						c11.625-3.703,32.098-2.965,35.282-2.823l16.374,76.073C1284.583,471.48,1284.812,471.657,1285.066,471.657z"/>
				</g>
			</g>
		</g>
		<g>
			<g>
				<path style="fill:#FF9E29;" d="M1330.671,1270.509c0,0,10.251,86.105-48.519,142.824c-58.77,56.72-91.572,53.986-97.039,75.854
					h172.656v-232.346L1330.671,1270.509z"/>
			</g>
			<g>
				<path style="fill:#F7AB48;" d="M1384.867,1270.509c0,0-10.25,86.105,48.519,142.824c58.77,56.72,91.572,53.986,97.038,75.854
					h-172.656v-232.346L1384.867,1270.509z"/>
			</g>
			<g>
				<g>
					<path style="fill:#F99247;" d="M1237.939,1217.82c-73.336-15.228-134.883-67.341-177.986-150.705
						c-31.883-61.664-42.518-118.277-42.955-120.657c-0.907-4.938,0.426-10.024,3.64-13.881c3.213-3.857,7.975-6.088,12.995-6.088
						h119.362v33.827h-97.996c5.598,20.977,16.614,55.887,35.394,92.019c38.777,74.606,90.732,119.14,154.423,132.366
						L1237.939,1217.82z"/>
				</g>
			</g>
			<g>
				<g>
					<path style="fill:#F99247;" d="M1477.599,1217.82l-6.877-33.12c63.691-13.226,115.647-57.76,154.423-132.366
						c18.78-36.132,29.795-71.039,35.394-92.019h-97.996v-33.827h119.362c5.02,0,9.782,2.231,12.995,6.088
						c3.213,3.857,4.547,8.943,3.64,13.881c-0.437,2.38-11.072,58.993-42.955,120.657
						C1612.483,1150.48,1550.936,1202.592,1477.599,1217.82z"/>
				</g>
			</g>
			<g>
				<path style="fill:#FF9E29;" d="M1357.769,870.054h-222.542c0,0,15.927,407.288,222.542,420.956V870.054L1357.769,870.054z"/>
			</g>
			<g>
				<path style="fill:#F7AB48;" d="M1580.311,870.054h-222.542v420.956C1564.384,1277.343,1580.311,870.054,1580.311,870.054
					L1580.311,870.054z"/>
			</g>
			<g>
				<path style="fill:#FF9E29;" d="M1357.769,1286.919h-35.776c-4.904,0-8.879,3.975-8.879,8.879c0,4.904,3.975,8.879,8.879,8.879
					h35.776V1286.919z"/>
			</g>
			<g>
				<path style="fill:#F7AB48;" d="M1357.769,1286.919h35.776c4.904,0,8.879,3.975,8.879,8.879c0,4.904-3.975,8.879-8.879,8.879
					h-35.776V1286.919z"/>
			</g>
			<g>
				<rect x="1134.819" y="1489.187" style="fill:#223749;" width="445.9" height="31.891"/>
			</g>
			<g>
				<rect x="1119.72" y="870.054" style="fill:#FF8D10;" width="476.099" height="34.168"/>
			</g>
			<g>
				<path d="M1595.818,904.739h-476.615v-35.202h24.251c0.285,0,0.517,0.231,0.517,0.517s-0.231,0.516-0.517,0.516h-23.217v33.135
					h475.582c0.285,0,0.517,0.231,0.517,0.517C1596.335,904.508,1596.104,904.739,1595.818,904.739z"/>
			</g>
			<g>
				<rect x="1143.41" y="1521.078" style="fill:#F7AB48;" width="428.719" height="175.854"/>
			</g>
			<g>
				<rect x="1067.477" y="1736.567" style="fill:#223749;" width="580.584" height="30.752"/>
			</g>
			<g>
				<polygon style="fill:#FF9E29;" points="1590.352,1736.567 1125.187,1736.567 1143.41,1696.932 1572.128,1696.932 				"/>
			</g>
			<g style="opacity:0.6;">
				<polygon style="fill:#FDE79D;" points="1357.769,990.327 1384.356,1044.199 1443.807,1052.838 1400.788,1094.771 
					1410.944,1153.982 1357.769,1126.026 1304.594,1153.982 1314.75,1094.771 1271.731,1052.838 1331.182,1044.199 				"/>
			</g>
			<g>
				<path style="fill:#FF8D10;" d="M1545.813,1462.764h-377.436c-3.463,0-6.27,2.807-6.27,6.27v13.883c0,3.463,2.807,6.27,6.27,6.27
					h377.436c3.463,0,6.27-2.807,6.27-6.27v-13.883C1552.083,1465.571,1549.276,1462.764,1545.813,1462.764z"/>
			</g>
			<g style="opacity:0.6;">
				<path style="fill:#FDE79D;" d="M1523.071,1642.689v-55.812c-10.545,0-19.094-8.548-19.094-19.094l0,0h-289.339l0,0
					c0,10.545-8.548,19.094-19.094,19.094v55.812c10.545,0,19.094,8.548,19.094,19.093h289.339
					C1503.977,1651.237,1512.526,1642.689,1523.071,1642.689z"/>
			</g>
			<g>
				<path style="fill:#223749;" d="M1523.071,1572.541c0,2.536-2.056,4.591-4.592,4.591c-2.536,0-4.591-2.056-4.591-4.591
					s2.056-4.592,4.591-4.592C1521.015,1567.949,1523.071,1570.005,1523.071,1572.541z"/>
			</g>
			<g>
				<path style="fill:#223749;" d="M1523.071,1657.191c0,2.536-2.056,4.591-4.592,4.591c-2.536,0-4.591-2.056-4.591-4.591
					s2.056-4.591,4.591-4.591C1521.015,1652.599,1523.071,1654.655,1523.071,1657.191z"/>
			</g>
			<g>
				<path style="fill:#223749;" d="M1204.727,1572.541c0,2.536-2.056,4.591-4.591,4.591c-2.536,0-4.592-2.056-4.592-4.591
					s2.056-4.592,4.592-4.592C1202.671,1567.949,1204.727,1570.005,1204.727,1572.541z"/>
			</g>
			<g>
				<path style="fill:#223749;" d="M1204.727,1657.191c0,2.536-2.056,4.591-4.591,4.591c-2.536,0-4.592-2.056-4.592-4.591
					s2.056-4.591,4.592-4.591C1202.671,1652.599,1204.727,1654.655,1204.727,1657.191z"/>
			</g>
			<g>
				<rect x="1267.375" y="1592.54" style="fill:#FF8D10;" width="172.028" height="4.49"/>
			</g>
			<g>
				<rect x="1248.601" y="1609.005" style="fill:#FF8D10;" width="209.576" height="4.489"/>
			</g>
			<g>
				<rect x="1267.375" y="1625.47" style="fill:#FF8D10;" width="172.028" height="4.49"/>
			</g>
			<g>
				<path d="M1173.781,1463.385c-0.285,0-0.516-0.231-0.516-0.517s0.231-0.516,0.516-0.516l364.901-0.105
					c0.285,0,0.517,0.231,0.517,0.517c0,0.285-0.231,0.516-0.517,0.516L1173.781,1463.385z"/>
			</g>
			<g>
				<path d="M1393.546,1287.436h-71.553c-0.285,0-0.516-0.231-0.516-0.517c0-0.285,0.231-0.516,0.516-0.516h71.553
					c0.285,0,0.516,0.231,0.516,0.516C1394.062,1287.204,1393.831,1287.436,1393.546,1287.436z"/>
			</g>
			<g>
				<path d="M1393.546,1305.194h-71.553c-0.285,0-0.516-0.231-0.516-0.517c0-0.285,0.231-0.517,0.516-0.517h71.553
					c0.285,0,0.516,0.231,0.516,0.517C1394.062,1304.962,1393.831,1305.194,1393.546,1305.194z"/>
			</g>
			<g>
				<path d="M1270.24,1424.874c-0.175,0-0.346-0.089-0.443-0.25c-0.147-0.244-0.069-0.562,0.176-0.71
					c0.126-0.075,12.704-7.786,26.319-26.253c12.567-17.045,28.611-47.001,33.68-92.918c0.031-0.283,0.291-0.497,0.57-0.457
					c0.284,0.031,0.488,0.286,0.457,0.57c-5.098,46.177-21.255,76.317-33.911,93.468c-13.734,18.61-26.453,26.398-26.58,26.475
					C1270.423,1424.85,1270.33,1424.874,1270.24,1424.874z"/>
			</g>
			<g>
				<path d="M1499.312,1463.385c-0.072,0-0.146-0.016-0.216-0.048c-0.222-0.102-22.626-10.633-60.679-44.528
					c-0.213-0.19-0.232-0.516-0.042-0.729c0.189-0.213,0.515-0.232,0.729-0.042c37.919,33.775,60.204,44.259,60.425,44.361
					c0.259,0.12,0.372,0.426,0.252,0.685C1499.694,1463.274,1499.507,1463.385,1499.312,1463.385z"/>
			</g>
			<g>
				<path d="M1428.486,1447.149c-0.129,0-0.258-0.048-0.358-0.144l-10.612-10.204c-0.206-0.198-0.213-0.525-0.015-0.73
					c0.198-0.206,0.525-0.213,0.73-0.015l10.612,10.204c0.206,0.198,0.213,0.525,0.015,0.73
					C1428.757,1447.096,1428.622,1447.149,1428.486,1447.149z"/>
			</g>
			<g>
				<path d="M1428.486,1454.896c-0.129,0-0.258-0.048-0.358-0.144l-10.612-10.204c-0.206-0.198-0.213-0.525-0.015-0.73
					c0.198-0.207,0.525-0.213,0.73-0.015l10.612,10.204c0.206,0.198,0.213,0.525,0.015,0.73
					C1428.757,1454.843,1428.622,1454.896,1428.486,1454.896z"/>
			</g>
			<g>
				<path d="M1246.498,1233.047c-0.149,0-0.297-0.065-0.399-0.188c-22.478-27.332-42.159-61.619-58.498-101.909
					c-13.066-32.22-24.035-68.331-32.605-107.33c-14.589-66.396-17.184-118.85-17.209-119.372c-0.013-0.285,0.207-0.527,0.492-0.54
					c0.286-0.011,0.527,0.207,0.54,0.492c0.025,0.521,2.617,52.904,17.19,119.218c13.444,61.179,40.126,147.063,90.887,208.786
					c0.182,0.221,0.149,0.546-0.071,0.727C1246.73,1233.008,1246.614,1233.047,1246.498,1233.047z"/>
			</g>
			<g>
				<path d="M1542.797,1088.411c-0.059,0-0.118-0.01-0.177-0.031c-0.268-0.098-0.406-0.394-0.309-0.662
					c20.432-56.082,34.82-182.284,34.964-183.552c0.031-0.284,0.29-0.488,0.571-0.455c0.284,0.032,0.488,0.288,0.455,0.571
					c-0.143,1.27-14.545,127.594-35.019,183.79C1543.206,1088.28,1543.008,1088.411,1542.797,1088.411z"/>
			</g>
			<g>
				<path d="M1676.572,960.833h-72.292c-0.285,0-0.517-0.231-0.517-0.517c0-0.285,0.231-0.516,0.517-0.516h72.292
					c0.285,0,0.516,0.231,0.516,0.516C1677.088,960.601,1676.857,960.833,1676.572,960.833z"/>
			</g>
			<g>
				<path d="M1598.144,1097.031c-0.106,0-0.212-0.032-0.305-0.1c-0.23-0.169-0.28-0.492-0.112-0.722
					c0.435-0.592,43.605-60.098,62.31-136.017c0.069-0.277,0.349-0.446,0.625-0.378c0.277,0.068,0.446,0.348,0.378,0.625
					c-18.756,76.125-62.045,135.787-62.479,136.381C1598.46,1096.958,1598.303,1097.031,1598.144,1097.031z"/>
			</g>
			<g>
				<path d="M1096.368,960.833h-55.404c-0.285,0-0.516-0.231-0.516-0.517c0-0.285,0.231-0.516,0.516-0.516h55.404
					c0.285,0,0.517,0.231,0.517,0.516C1096.884,960.601,1096.653,960.833,1096.368,960.833z"/>
			</g>
			<g>
				<path d="M1100.651,1071.362c-0.173,0-0.342-0.087-0.439-0.244c-0.307-0.494-30.913-50.107-45.715-110.68
					c-0.068-0.277,0.102-0.557,0.379-0.625c0.278-0.068,0.557,0.103,0.624,0.379c14.76,60.407,45.282,109.887,45.588,110.38
					c0.151,0.242,0.077,0.561-0.165,0.711C1100.838,1071.337,1100.744,1071.362,1100.651,1071.362z"/>
			</g>
			<g>
				<path d="M1234.642,1217.625c-0.026,0-0.051-0.002-0.077-0.005c-0.434-0.065-43.982-6.887-89.206-42.641
					c-0.224-0.177-0.262-0.502-0.085-0.726c0.176-0.223,0.501-0.262,0.725-0.085c45.01,35.585,88.286,42.365,88.718,42.429
					c0.282,0.042,0.477,0.305,0.435,0.587C1235.114,1217.441,1234.894,1217.625,1234.642,1217.625z"/>
			</g>
			<g>
				<path d="M1544.14,1192.578c-0.183,0-0.36-0.097-0.454-0.269c-0.136-0.251-0.045-0.564,0.206-0.701
					c0.362-0.198,36.576-20.184,59.984-49.504c0.178-0.223,0.505-0.258,0.726-0.081c0.223,0.178,0.26,0.503,0.081,0.726
					c-23.54,29.485-59.931,49.567-60.296,49.766C1544.308,1192.557,1544.223,1192.578,1544.14,1192.578z"/>
			</g>
			<g>
				<path d="M1536.845,973.103c-0.145,0-0.289-0.061-0.391-0.179l-23.925-27.756c-0.186-0.216-0.162-0.542,0.054-0.728
					c0.215-0.186,0.542-0.163,0.729,0.054l23.925,27.756c0.186,0.216,0.162,0.542-0.054,0.728
					C1537.084,973.062,1536.965,973.103,1536.845,973.103z"/>
			</g>
			<g>
				<path d="M1538.812,993.613c-0.145,0-0.289-0.061-0.391-0.179l-23.925-27.756c-0.186-0.216-0.162-0.542,0.054-0.728
					c0.215-0.186,0.541-0.163,0.728,0.054l23.925,27.756c0.186,0.216,0.162,0.543-0.055,0.729
					C1539.051,993.572,1538.931,993.613,1538.812,993.613z"/>
			</g>
			<g>
				<path d="M1304.595,1154.498c-0.029,0-0.058-0.002-0.088-0.007c-0.281-0.048-0.47-0.315-0.422-0.597l10.155-59.211
					c0.048-0.281,0.314-0.47,0.597-0.422c0.281,0.048,0.47,0.316,0.422,0.597l-10.155,59.211
					C1305.061,1154.321,1304.842,1154.498,1304.595,1154.498z"/>
			</g>
			<g>
				<path d="M1271.73,1053.355c-0.252,0-0.473-0.185-0.51-0.442c-0.041-0.282,0.155-0.544,0.437-0.585l59.451-8.639
					c0.276-0.041,0.544,0.154,0.585,0.437c0.041,0.282-0.155,0.544-0.437,0.585l-59.451,8.639
					C1271.78,1053.353,1271.755,1053.355,1271.73,1053.355z"/>
			</g>
			<g>
				<path d="M1384.357,1044.716c-0.191,0-0.374-0.106-0.464-0.288l-26.587-53.872c-0.126-0.256-0.021-0.566,0.235-0.692
					c0.256-0.127,0.566-0.021,0.692,0.234l26.587,53.872c0.126,0.256,0.021,0.566-0.235,0.692
					C1384.512,1044.698,1384.434,1044.716,1384.357,1044.716z"/>
			</g>
			<g>
				<path d="M1400.788,1095.288c-0.135,0-0.268-0.052-0.37-0.156c-0.199-0.204-0.195-0.531,0.009-0.73l43.019-41.933
					c0.204-0.199,0.531-0.195,0.73,0.009c0.199,0.204,0.195,0.531-0.009,0.73l-43.019,41.933
					C1401.049,1095.239,1400.918,1095.288,1400.788,1095.288z"/>
			</g>
			<g>
				<path d="M1410.943,1154.498c-0.081,0-0.163-0.019-0.24-0.059l-53.174-27.956c-0.253-0.133-0.35-0.445-0.217-0.698
					c0.134-0.252,0.445-0.348,0.697-0.217l53.174,27.956c0.253,0.133,0.35,0.445,0.217,0.698
					C1411.308,1154.398,1411.129,1154.498,1410.943,1154.498z"/>
			</g>
			<g>
				<path d="M1580.719,1521.594c-0.285,0-0.516-0.231-0.516-0.516v-31.374h-444.868v31.374c0,0.285-0.231,0.516-0.516,0.516
					c-0.285,0-0.516-0.231-0.516-0.516v-32.407h446.934v32.407C1581.236,1521.363,1581.005,1521.594,1580.719,1521.594z"/>
			</g>
			<g>
				<path d="M1523.071,1587.394c-0.015,0-0.032-0.001-0.047-0.002c-17.973-1.63-19.445-16.108-19.556-19.091h-288.831
					c-0.285,0-0.517-0.231-0.517-0.517c0-0.285,0.231-0.516,0.517-0.516h289.874l-0.018,0.534
					c-0.023,0.687-0.337,16.842,18.623,18.561c0.284,0.025,0.494,0.277,0.468,0.561
					C1523.561,1587.192,1523.336,1587.394,1523.071,1587.394z"/>
			</g>
			<g>
				<path d="M1455.422,1662.298h-240.785c-0.285,0-0.517-0.231-0.517-0.516c0-0.285,0.231-0.517,0.517-0.517h240.785
					c0.285,0,0.517,0.231,0.517,0.517C1455.939,1662.067,1455.708,1662.298,1455.422,1662.298z"/>
			</g>
			<g>
				<path d="M1590.352,1737.083c-0.195,0-0.382-0.112-0.469-0.301l-18.084-39.335H1143.41c-0.285,0-0.517-0.231-0.517-0.516
					c0-0.285,0.231-0.517,0.517-0.517h429.05l0.139,0.301l18.223,39.635c0.119,0.26,0.005,0.566-0.254,0.685
					C1590.498,1737.069,1590.424,1737.083,1590.352,1737.083z"/>
			</g>
			<g>
				<path d="M1610.169,1737.083h-338.728c-0.285,0-0.516-0.231-0.516-0.517c0-0.285,0.231-0.516,0.516-0.516h338.728
					c0.285,0,0.516,0.231,0.516,0.516C1610.686,1736.852,1610.454,1737.083,1610.169,1737.083z"/>
			</g>
			<g>
				<path d="M1149.732,1716.949c-0.168,0-0.333-0.082-0.432-0.233c-0.157-0.239-0.09-0.559,0.149-0.715l16.734-10.974
					c0.239-0.156,0.559-0.089,0.715,0.149c0.157,0.239,0.09,0.559-0.149,0.715l-16.734,10.974
					C1149.927,1716.921,1149.829,1716.949,1149.732,1716.949z"/>
			</g>
			<g>
				<path d="M1149.732,1726.023c-0.168,0-0.333-0.082-0.432-0.233c-0.157-0.239-0.09-0.559,0.149-0.715l16.734-10.974
					c0.239-0.156,0.559-0.089,0.715,0.149c0.157,0.239,0.09,0.559-0.149,0.715l-16.734,10.974
					C1149.927,1725.996,1149.829,1726.023,1149.732,1726.023z"/>
			</g>
			<g>
				<path d="M1648.061,1737.083h-376.62c-0.285,0-0.516-0.231-0.516-0.517c0-0.285,0.231-0.516,0.516-0.516h376.62
					c0.285,0,0.517,0.231,0.517,0.516C1648.578,1736.852,1648.346,1737.083,1648.061,1737.083z"/>
			</g>
		</g>
	</g>
	<g>
		<defs>
			<path id="SVGID_1_" d="M673.342,1772.458l-146.47-6.834c0,0-294.838-231.009-260.166-776.156
				c34.673-545.147,572.187-799.649,747.705-843.634c175.518-43.984,266.913-10.572,386.789,73.564
				c112.807,79.173,268.92,49.42,421.361,77.443c127.233,23.389,327.993,103.342,452.388,355.524
				c120.796,244.885,177.932,652.828-147.787,1109.828L673.342,1772.458z"/>
		</defs>
		<clipPath id="SVGID_00000125566635142980927670000006606954519533785229_">
			<use xlink:href="#SVGID_1_"  style="overflow:visible;"/>
		</clipPath>
		<g style="clip-path:url(#SVGID_00000125566635142980927670000006606954519533785229_);">
			<g>
				<g>
					<g>
						<path style="fill:#ED7163;" d="M2215.191,1119.654c0,0-50.462,38.042-89.923,29.566
							c-39.462-8.477-13.432-70.317-13.851-69.487c-0.419,0.83,47.193-52.191,59.247-51.311s62.764,3.583,58.991,11.051
							C2225.882,1046.941,2215.191,1119.654,2215.191,1119.654z"/>
					</g>
				</g>
				<g>
					<g>
						<path style="fill:#FE9F73;" d="M2203.729,1126.881l75.746,30.923l36.721-106.508l-81.047-36.036
							c0,0-56.617-30.254-71.142-36.548c-14.527-6.295-51.498-13.514-66.041-15.655c-4.275-0.629-9.372-2.302-14.439-4.354
							c-12.168-4.924-24.159-12.017-24.159-12.017c-1.73-0.672-3.32-1.122-4.767-1.375c-17.122-2.982-14.794,21.665-1.811,33.983
							c14.082,13.365,64.305,33.525,64.305,33.525s9.034,27.476,43.031,50.897c33.994,23.422,55.286,1.892,55.286,1.892
							L2203.729,1126.881z"/>
					</g>
				</g>
				<g>
					<g>
						<path style="fill:#FE9F73;" d="M2185.653,1074.259c0,0,24.986,2.602,25.115,15.699c0.13,13.098,21.02-20.635,19.997-21.151
							s-18.794-40.3-23.427-34.939c-4.634,5.361-21.478,20.92-19.072,27.591C2190.674,1068.131,2185.653,1074.259,2185.653,1074.259
							z"/>
					</g>
				</g>
				<g>
					<g>
						<path d="M2235.419,1014.755c-0.566-0.303-56.804-30.337-71.184-36.568c-14.818-6.421-52.83-13.73-66.185-15.696
							c-3.799-0.559-8.613-2.012-14.308-4.319c-11.987-4.851-23.962-11.908-24.082-11.979l-0.084-0.041
							c-1.718-0.667-3.358-1.14-4.876-1.405c-6.87-1.196-10.015,1.941-11.444,4.784c-1.828,3.637-1.894,9.024-0.181,14.779
							c1.754,5.893,5.065,11.362,9.321,15.401c13.648,12.953,60.017,31.838,64.244,33.544c0.482,1.343,2.963,7.845,8.744,16.548
							c5.966,8.98,16.78,22.236,34.417,34.386c7.82,5.388,15.625,8.843,23.198,10.268c6.078,1.144,12.02,0.991,17.659-0.456
							c9.615-2.466,14.939-7.765,15.16-7.99l-0.814-0.806c-0.052,0.053-5.362,5.325-14.691,7.701
							c-8.607,2.192-22.51,2.295-39.863-9.661c-17.467-12.033-28.176-25.15-34.085-34.035c-6.403-9.629-8.705-16.501-8.727-16.569
							l-0.083-0.253l-0.247-0.099c-0.501-0.201-50.282-20.273-64.124-33.409c-8.292-7.867-12.537-21.612-8.906-28.833
							c1.799-3.58,5.334-5.022,10.223-4.17c1.431,0.25,2.983,0.697,4.615,1.328c0.788,0.463,12.48,7.291,24.194,12.031
							c5.779,2.341,10.682,3.818,14.571,4.39c13.311,1.96,51.177,9.236,65.896,15.614c14.337,6.213,70.533,36.225,71.099,36.527
							L2235.419,1014.755z"/>
					</g>
				</g>
				<g>
					<g>
						
							<rect x="2230.496" y="1108.512" transform="matrix(0.378 -0.9258 0.9258 0.378 334.1781 2773.4683)" width="1.146" height="59.062"/>
					</g>
				</g>
				<g>
					<g>
						<g>
							<g>
								<g>
									<g>
										<path style="fill:#000100;" d="M2212.307,1044.407c0.183-0.095,0.313-0.281,0.327-0.502
											c0.435-7.431-5.566-17.66-5.822-18.092c-0.17-0.287-0.539-0.38-0.827-0.212c-0.287,0.17-0.382,0.54-0.212,0.828
											c0.061,0.103,6.068,10.344,5.655,17.406c-0.02,0.333,0.235,0.619,0.568,0.638
											C2212.107,1044.479,2212.214,1044.455,2212.307,1044.407z"/>
									</g>
								</g>
							</g>
						</g>
					</g>
				</g>
				<g>
					<g>
						<g>
							<g>
								<g>
									<g>
										<path style="fill:#000100;" d="M2207.427,1051.175c0.143-0.074,0.257-0.205,0.304-0.372
											c2.028-7.163-1.625-18.445-1.781-18.922c-0.104-0.317-0.446-0.49-0.762-0.386c-0.318,0.103-0.49,0.445-0.386,0.762
											c0.037,0.113,3.694,11.41,1.767,18.216c-0.091,0.321,0.096,0.655,0.417,0.746
											C2207.14,1051.263,2207.296,1051.243,2207.427,1051.175z"/>
									</g>
								</g>
							</g>
						</g>
					</g>
				</g>
				<g>
					<path style="fill:#309CC1;" d="M2444.088,1081.741l-46.115,158.502l-177.702-100.095c0,0,0.582-1.906,1.594-5.245
						c0.052-0.181,0.11-0.363,0.167-0.55c0.052-0.181,0.11-0.363,0.163-0.552c6.551-21.63,27.767-92.131,31.736-110.191
						c0.486-2.216,0.713-3.642,0.622-4.092C2253.714,1015.395,2402.102,1067.05,2444.088,1081.741z"/>
				</g>
				<g>
					<g>
						<path style="fill:#FF8D10;" d="M2008.574,1122.859c0,0,69.303,32.163,97.31,29.661c28.007-2.502,34.462-18.16,34.462-18.16
							l46.827,18.02l51.056-170.608l-51.489-15.882c0,0-19.365-55.541-79.614-78.22c-40.309-15.173-95.735,29.309-95.735,29.309
							l-147.474-34.946c-11.371-2.517-32.403-3.308-41.562,3.885c-7.116,5.589-13.085,14.046-13.998,26.45
							c-2.182,29.652,18.253,38.818,34.467,44.42l41.484,13.579c0,0-7.482,23.156,4.21,51.207c0,0-20.337,41.776,17.189,60.536
							c0,0-3.227,23.288,10.466,36.921C1937.603,1140.367,1986.526,1130.151,2008.574,1122.859z"/>
					</g>
					<g>
						<path style="fill:#FEC369;" d="M2000.793,1143.827c0,0,69.303,32.163,97.31,29.661c28.008-2.502,34.462-18.16,34.462-18.16
							l48.737,18.084l50.505-170.182l-52.847-16.372c0,0-19.365-55.541-79.614-78.22c-40.309-15.173-88.257,31.08-88.257,31.08
							l-154.951-36.718c-11.371-2.517-32.403-3.308-41.562,3.885c-7.116,5.589-13.085,14.046-13.998,26.45
							c-2.182,29.652,18.253,38.818,34.467,44.42l41.484,13.579c0,0-22.9,26.963,4.21,51.207c0,0-20.337,41.776,17.189,60.536
							c0,0-3.227,23.288,10.466,36.921C1929.823,1161.335,1978.745,1151.12,2000.793,1143.827z"/>
					</g>
					<g>
						<path style="fill:#FFFFFF;" d="M2093.544,916.576c-15.524-2.35-32.471,3.844-50.377,18.392
							c-6.968,5.661-13.163,11.86-18.198,17.367c-21.592-5.162-160.998-38.122-186.709-35.329
							c-15.593,1.693-20.031,10.839-21.287,16.137c-2.605,11,3.377,23.703,10.376,28.228c1.574,1.022,5.5,3.562,71.965,22.487
							c-1.487,1.228-2.932,2.671-4.311,4.319c-7.963,9.489-12.724,24.473-11.318,35.626c0.871,6.88,5.045,12.987,12.41,18.144
							c1.822,1.273,3.74,2.406,5.734,3.4c-2.185,2.06-4.201,4.688-5.868,7.745c-5.095,9.34-5.602,20.114-1.352,28.813
							c4.542,9.297,13.669,13.497,21.608,15.377c-3.743,5.91-4.445,11.505-4.23,15.574c0.446,8.465,5.084,15.822,9.483,19.358
							c6.9,5.547,16.648,6.357,17.06,6.388l0.484,0.01c0.752-0.028,18.628-0.728,37.473-3.833
							c9.532-1.571,17.496-3.454,23.941-5.665c6.043,3.118,27.415,13.69,51.845,20.44c16.838,4.652,31.611,6.483,43.909,5.44
							c14.802-1.255,26.107-6.648,33.657-16.045l32.573,9.714c2.149,0.641,4.406-0.506,5.175-2.579
							c0.032-0.087,0.062-0.176,0.089-0.266c0.668-2.24-0.606-4.596-2.846-5.264l-38.368-11.443l-1.743,2.547
							c-13.845,20.224-45.745,16.477-70.069,9.773c-18.052-4.975-34.73-12.298-44.08-16.754c5.148-2.938,8.408-6.302,9.824-10.118
							c0.138-0.371,0.259-0.747,0.361-1.127c3.387-12.498-0.205-21.033-4.651-25.981c5.097-3.39,9.562-8.193,11.854-14.372
							c0.943-2.543,1.52-5.321,1.621-8.325c0.346-10.306-7.364-16.621-14.506-20.247c2.348-1.522,3.437-3.163,4.036-4.777
							c2.076-5.593,3.825-11.456,3.892-16.866c0.161,0.002,0.316,0.001,0.478-0.003c39.149-0.696,80.634-44.038,82.381-45.878
							c1.604-1.7,1.533-4.376-0.159-5.984c-1.7-1.604-4.376-1.534-5.984,0.159c-0.405,0.43-40.811,42.619-76.402,43.248
							c-0.676,0.014-1.339,0.013-1.994-0.011c-9.405-0.247-17.412-3.482-24.378-9.852c0.112-0.474,0.324-1.169,0.723-2.124
							c1.647-3.986,6.488-12.55,20.667-29.113c0.478-0.558,1.141-1.389,1.984-2.429c2.982-3.71,5.934-7.199,8.841-10.465
							c0.396-0.304,0.736-0.681,1.005-1.11c23.08-25.555,43.94-37.099,62.117-34.358c3.473,0.528,17.872,11.989,34.822,31.348
							c17.036,19.464,28.806,37.943,31.865,49.939v0.001c0.085,0.333,0.166,0.663,0.238,0.986l-1.302,22.154
							c-0.135,2.329,1.643,4.33,3.977,4.468c1.899,0.112,3.581-1.05,4.212-2.75c0.141-0.38,0.229-0.792,0.255-1.227l1.127-19.133
							l29.864,7.754c2.12,0.551,4.283-0.608,5.029-2.618c0.05-0.134,0.093-0.273,0.13-0.414c0.587-2.261-0.77-4.572-3.032-5.159
							l-32.994-8.566c-5.809-18.572-24.687-41.507-33-51.006C2122.935,938.687,2102.673,917.952,2093.544,916.576z
							 M2012.59,1111.218c-0.598,2.215-5.072,9.86-37.407,15.199c-17.08,2.82-33.86,3.625-36.208,3.727
							c-1.272-0.14-7.834-1.014-12.203-4.525c-2.366-1.902-6.006-6.989-6.333-13.208c-0.256-4.864,1.534-9.478,5.312-13.744
							c2.772,0.169,4.635,0.084,4.913,0.069l0.099-0.006c0.591-0.045,59.184-4.53,69.052-5.334c2.549-0.208,5.38-0.842,8.253-1.887
							C2010.776,1093.513,2015.88,1099.078,2012.59,1111.218z M2021.123,1064.469c-0.069,2.04-0.46,3.921-1.102,5.65
							c-3.526,9.5-14.59,14.329-20.893,14.843c-9.698,0.79-66.644,5.15-68.943,5.326c-1.04,0.04-21.741,0.654-27.971-12.097
							c-3.048-6.24-2.607-14.109,1.177-21.045c2.67-4.894,6.187-7.77,8.404-8.188c2.831,0.679,5.749,1.114,8.723,1.28
							c11.649,0.647,34.228,1.637,54.526,1.006c12.229-0.382,21.039-1.267,27.411-2.469
							C2006.079,1049.721,2021.463,1054.348,2021.123,1064.469z M2011.202,1036.736c-0.073,0.123-1.253,1.916-9.42,3.549
							c-0.024,0.004-0.047,0.009-0.071,0.014c-5.537,1.101-14.259,2.126-27.98,2.514c-19.737,0.561-41.52-0.403-52.745-1.029
							c-7.359-0.41-14.286-2.748-20.035-6.77c-5.327-3.73-8.31-7.855-8.864-12.27c-0.636-4.994,0.37-11.146,2.52-16.937
							c1.674-4.511,4.042-8.809,6.876-12.187c2.217-2.639,5.614-5.783,9.616-6.419c3.911,1.103,8.009,2.256,12.306,3.464
							c24.654,6.917,49.119,13.649,65.966,18.256l0.193,0.278l0.256,0.249c7.106,6.982,15.395,11.264,24.732,12.788l0.006,0.002
							C2014.608,1025.453,2013.686,1030.024,2011.202,1036.736z M2013.721,965.57c-0.792,0.989-1.417,1.769-1.813,2.229
							c-11.12,12.992-18.393,23.226-21.632,30.426c-0.304,0.68-0.571,1.329-0.804,1.958c-24.381-6.661-51-14.037-75.319-20.901
							c-0.663-0.42-1.447-0.653-2.281-0.647c-41.626-11.777-74.341-21.805-78.274-24.219c-3.94-2.552-10.154-11.862-8.387-19.318
							c1.313-5.554,6.016-8.812,13.965-9.679c19.852-2.156,122.291,20.478,179.495,34.109
							C2016.625,961.966,2014.953,964.041,2013.721,965.57z"/>
					</g>
					<g>
						<path d="M2020.791,1116.011c-2.106,3.537-5.422,6.614-9.919,9.191l-0.601-1.049c6.625-3.797,10.558-8.693,11.691-14.552
							c2.112-10.928-6.246-21.669-6.331-21.776l-0.398-0.504l0.527-0.367c0.141-0.097,14.039-9.916,13.216-22.161
							c-0.893-13.306-11.939-18.773-14.144-19.733l0.483-1.108c2.318,1.01,13.927,6.756,14.868,20.761
							c0.785,11.706-10.612,20.916-13.225,22.866c1.685,2.312,8.167,12.03,6.191,22.252
							C2022.725,1112.023,2021.938,1114.086,2020.791,1116.011z"/>
					</g>
					<g>
						<path d="M2089.567,981.545c-0.368,0.292-37.118,29.262-59.562,32.889c-11.809,1.908-20.281-0.764-25.309-3.341
							c-5.474-2.806-8.112-6.037-8.222-6.173l0.941-0.759c0.026,0.032,2.623,3.199,7.89,5.886
							c4.859,2.478,13.054,5.044,24.506,3.193c22.133-3.576,58.637-32.352,59.004-32.642L2089.567,981.545z"/>
					</g>
					<g>
						<path d="M1938.816,1090.232c-15.628,1.201-24.864-2.022-29.86-4.937c-5.492-3.204-7.215-6.696-7.286-6.843l1.089-0.525
							c0.016,0.033,1.684,3.364,6.904,6.38c4.845,2.799,13.819,5.89,29.061,4.72L1938.816,1090.232z"/>
					</g>
					<g>
						<path d="M1938.974,1043.191c-13.089-0.461-23.708-2.264-31.562-5.358c-6.353-2.503-10.938-5.857-13.628-9.971
							c-4.642-7.099-2.049-13.86-1.936-14.145l1.124,0.445l-0.562-0.223l0.562,0.222c-0.025,0.064-2.47,6.495,1.839,13.061
							c4.046,6.166,15,13.732,44.206,14.76L1938.974,1043.191z"/>
					</g>
					<g>
						<path d="M2130.299,1139.343c-8.531,9.927-20.714,15.581-36.21,16.801c-12.337,0.972-26.793-0.85-42.966-5.416
							c-27.49-7.761-50.762-20.957-50.993-21.09l0.599-1.05c0.231,0.132,23.392,13.263,50.743,20.982
							c25.13,7.092,59.047,10.937,77.91-11.016L2130.299,1139.343z"/>
					</g>
					<g>
						<path d="M1964.782,1128.521c-20.688,4.822-31.447,1.825-36.829-1.539c-5.417-3.385-6.439-7.623-6.48-7.802l1.178-0.271
							c0.01,0.043,1.073,4.317,6.668,7.48c5.233,2.958,15.586,5.524,35.188,0.954L1964.782,1128.521z"/>
					</g>
					<g>
						<path d="M1848.344,960.679c-12.735-3.433-18.6-8.896-21.279-12.875c-2.95-4.383-2.816-7.932-2.809-8.081l1.208,0.056
							c-0.001,0.033-0.108,3.367,2.66,7.431c2.574,3.78,8.225,8.982,20.535,12.301L1848.344,960.679z"/>
					</g>
					<g>
						
							<rect x="1962.737" y="890.7" transform="matrix(0.2149 -0.9766 0.9766 0.2149 616.1818 2661.2219)" width="1.209" height="113.306"/>
					</g>
					<g>
						<path d="M2109.398,937.032l-0.875,0.834c-10.235-10.747-20.379-12.543-27.087-12.157c-7.284,0.419-12.222,3.424-12.271,3.454
							l-0.637-1.028c0.209-0.13,5.204-3.179,12.778-3.63C2088.283,924.091,2098.821,925.927,2109.398,937.032z"/>
					</g>
					<g>
						
							<rect x="2093.634" y="1115.183" transform="matrix(0.8586 -0.5127 0.5127 0.8586 -274.2966 1237.2814)" width="23.44" height="1.209"/>
					</g>
					<g>
						
							<rect x="2080.272" y="1113.364" transform="matrix(0.8586 -0.5127 0.5127 0.8586 -275.2536 1230.1731)" width="23.44" height="1.209"/>
					</g>
				</g>
			</g>
			<g>
				<g>
					<g>
						<path style="fill:#ED7163;" d="M686.327,470.703c0,0,10.221,60.429,43.68,80.744c33.459,20.315,56.311-40.61,56.054-39.746
							c-0.257,0.864,1.508-68.224-7.574-75.633c-9.082-7.409-46.622-39.287-48.939-31.511
							C727.232,412.333,686.327,470.703,686.327,470.703z"/>
					</g>
				</g>
				<g>
					<g>
						<path style="fill:#FE9F73;" d="M689.59,483.433l-73.986-28.667l45.074-99.53l81.128,28.595c0,0,60.058,16.395,74.488,21.635
							c14.433,5.241,45.298,24.783,56.974,32.962c3.431,2.405,8.139,4.622,13.077,6.551c11.856,4.636,25.032,7.625,25.032,7.625
							c1.667,0.679,3.087,1.421,4.276,2.207c14.054,9.305-4.006,25.125-21.363,25.158c-18.828,0.038-67.656-19.211-67.656-19.211
							s-24.671,13.346-64.235,7.204c-39.562-6.138-40.225-35.498-40.225-35.498L689.59,483.433z"/>
					</g>
				</g>
				<g>
					<g>
						<path style="fill:#FE9F73;" d="M737.386,458.387c0,0-19.343-14.812-28.16-5.667c-8.817,9.145-1.068-28.546-0.003-28.229
							c1.065,0.317,40.093-15.883,39.787-9.017c-0.306,6.865,1.201,29.053-4.94,32.151
							C737.93,450.723,737.386,458.387,737.386,458.387z"/>
					</g>
				</g>
				<g>
					<g>
						<path d="M741.952,383.296c0.601,0.164,60.245,16.461,74.531,21.649c14.721,5.346,46.381,25.518,57.103,33.03
							c3.05,2.137,7.41,4.32,12.961,6.488c11.68,4.567,24.822,7.571,24.953,7.6l0.086,0.027c1.655,0.674,3.126,1.434,4.373,2.258
							c5.639,3.733,5.765,8.04,4.878,10.996c-1.134,3.781-4.677,7.622-9.718,10.536c-5.162,2.984-11.139,4.634-16.829,4.644
							c-18.248,0.036-63.51-17.544-67.625-19.158c-1.234,0.626-7.314,3.555-17.187,5.837c-10.187,2.355-26.639,4.493-47.164,1.307
							c-9.101-1.412-16.904-4.177-23.191-8.218c-5.046-3.243-9.131-7.309-12.143-12.086c-5.134-8.144-5.355-15.425-5.362-15.731
							l1.111-0.026c0.002,0.072,0.232,7.326,5.224,15.215c4.606,7.279,14.336,16.614,34.531,19.747
							c20.327,3.156,36.613,1.046,46.696-1.28c10.928-2.521,17.128-5.831,17.189-5.864l0.227-0.123l0.241,0.095
							c0.487,0.192,48.944,19.21,67.451,19.173c11.085-0.021,23.234-6.88,25.485-14.389c1.117-3.721-0.414-7.093-4.427-9.75
							c-1.175-0.777-2.567-1.496-4.138-2.139c-0.863-0.199-13.653-3.176-25.067-7.639c-5.633-2.2-10.072-4.425-13.194-6.613
							c-10.687-7.487-42.222-27.585-56.845-32.895c-14.244-5.173-73.844-21.458-74.444-21.622L741.952,383.296z"/>
					</g>
				</g>
				<g>
					<g>
						
							<rect x="662.329" y="444.446" transform="matrix(0.3613 -0.9325 0.9325 0.3613 -17.7403 920.2724)" width="1.111" height="57.279"/>
					</g>
				</g>
				<g>
					<g>
						<g>
							<g>
								<g>
									<g>
										<path style="fill:#000100;" d="M738.488,419.591c-0.066-0.189-0.034-0.407,0.104-0.571
											c4.644-5.527,15.688-8.739,16.156-8.873c0.311-0.089,0.633,0.091,0.724,0.402c0.089,0.311-0.091,0.635-0.402,0.725
											c-0.111,0.032-11.168,3.248-15.581,8.5c-0.208,0.248-0.578,0.28-0.825,0.072
											C738.581,419.775,738.522,419.687,738.488,419.591z"/>
									</g>
								</g>
							</g>
						</g>
					</g>
				</g>
				<g>
					<g>
						<g>
							<g>
								<g>
									<g>
										<path style="fill:#000100;" d="M737.418,427.612c-0.052-0.148-0.045-0.316,0.033-0.465
											c3.343-6.399,13.433-11.918,13.861-12.149c0.285-0.154,0.64-0.048,0.794,0.236c0.156,0.285,0.048,0.64-0.236,0.794
											c-0.102,0.055-10.204,5.581-13.38,11.661c-0.15,0.287-0.504,0.398-0.791,0.248
											C737.563,427.866,737.466,427.747,737.418,427.612z"/>
									</g>
								</g>
							</g>
						</g>
					</g>
				</g>
				<g>
					<path style="fill:#CEEAF3;" d="M550.259,291.493l-96.791,142.236l215.625,48.034c0,0,0.859-1.731,2.371-4.758
						c0.083-0.162,0.164-0.329,0.249-0.499c0.084-0.162,0.164-0.329,0.253-0.498c9.793-19.609,41.807-83.431,51.041-98.804
						c1.134-1.885,1.924-3.042,2.288-3.298C728.632,371.559,589.638,309.11,550.259,291.493z"/>
				</g>
				<g>
					<g>
						<path style="fill:#E51C30;" d="M829.813,610.609c0,0-70.271-23.501-88.343-43.923c-18.073-20.422-12.191-35.757-12.191-35.757
							l-45.008-18.495l77.674-154.256l46.869,23.108c0,0,50.649-26.244,108.221-2.09c38.517,16.16,47.948,84.434,47.948,84.434
							l127.219,73.616c9.691,5.801,25.041,19.255,26.705,30.427c1.292,8.68-0.135,18.616-7.755,27.967
							c-18.216,22.352-38.724,15.198-53.884,8.345l-38.283-18.066c0,0-10.153,21.305-37.081,33.286c0,0-13.498,42.992-52.443,31.214
							c0,0-13.24,18.563-31.972,19.049C868.169,670.228,840.494,630.437,829.813,610.609z"/>
					</g>
					<g>
						<path style="fill:#FF424D;" d="M821.328,630.57c0,0-70.271-23.501-88.343-43.923c-18.072-20.422-12.191-35.757-12.191-35.757
							l-46.397-19.722l77.779-153.589l48.153,23.668c0,0,50.649-26.244,108.221-2.09c38.518,16.16,41.497,80.701,41.497,80.701
							l133.669,77.349c9.691,5.801,25.041,19.255,26.704,30.426c1.292,8.68-0.135,18.617-7.755,27.967
							c-18.216,22.352-38.725,15.198-53.884,8.345l-38.283-18.066c0,0-1.823,34.259-37.081,33.286c0,0-13.498,42.992-52.443,31.214
							c0,0-13.24,18.563-31.972,19.049C859.683,690.189,832.009,650.398,821.328,630.57z"/>
					</g>
					<g>
						<path style="fill:#FFFFFF;" d="M856.465,406.076c-12.187,1.157-40.771,4.745-57.238,13.964l-28.96-15.943
							c-1.986-1.093-4.481-0.37-5.574,1.616c-0.068,0.124-0.13,0.25-0.184,0.378c-0.814,1.914-0.061,4.171,1.8,5.195l26.213,14.43
							l-11.952,14.236c-0.272,0.324-0.484,0.673-0.637,1.035c-0.688,1.619-0.277,3.558,1.136,4.744
							c1.737,1.458,4.323,1.233,5.779-0.499l13.841-16.481c0.265-0.18,0.543-0.359,0.824-0.536c0,0,0,0,0,0
							c10.147-6.417,30.753-11.6,55.727-13.968c24.842-2.352,42.626-0.837,45.425,1.104c14.637,10.177,21.648,32.21,20.89,65.597
							c-0.096,0.481-0.108,0.973-0.031,1.452c-0.127,4.239-0.371,8.665-0.741,13.266c-0.099,1.296-0.185,2.323-0.22,3.034
							c-1.041,21.12-3.334,30.381-4.829,34.287c-0.354,0.939-0.667,1.57-0.905,1.979c-9.153-0.152-16.951-3.205-23.744-9.297
							c-0.478-0.42-0.946-0.861-1.413-1.321c-24.665-24.154-25.037-80.807-25.036-81.379c-0.006-2.264-1.845-4.096-4.112-4.098
							c-2.264,0.006-4.096,1.845-4.098,4.112c0.005,2.461,0.369,60.645,27.497,87.216c0.112,0.111,0.221,0.215,0.335,0.321
							c-3.557,3.858-6.229,9.155-8.493,14.48c-0.653,1.537-0.978,3.419-0.338,6.056c-7.449-2.202-17.091-2.888-23.712,4.606
							c-1.931,2.185-3.375,4.527-4.404,6.948c-2.501,5.882-2.554,12.241-1.22,18.026c-6.43,0.525-14.648,4.148-20.586,15.213
							c-0.181,0.336-0.346,0.682-0.496,1.035c-1.544,3.633-1.488,8.176,0.183,13.676c-9.558-3.089-26.191-9.038-42.228-17.557
							c-21.609-11.479-46.588-30.091-42.873-53.568l0.468-2.956l-34.664-17.496c-2.023-1.021-4.491-0.209-5.513,1.814
							c-0.041,0.082-0.079,0.164-0.115,0.247c-0.839,1.973-0.012,4.285,1.929,5.265l29.428,14.853
							c-0.939,11.653,3.436,22.985,13.033,33.731c7.973,8.928,19.604,17.479,34.57,25.418
							c21.715,11.518,43.821,18.305,50.157,20.133c3.07,5.852,7.428,12.484,13.099,19.942
							c11.213,14.744,23.346,27.145,23.857,27.666l0.348,0.316c0.311,0.252,7.721,6.175,16.279,6.863
							c5.455,0.439,13.625-1.657,19.579-7.326c2.862-2.725,6.095-7.136,7.394-13.795c6.848,3.964,16.078,7.083,25.473,3.557
							c8.791-3.299,15.611-11.23,18.242-21.207c0.861-3.265,1.191-6.46,1.024-9.368c2.067,0.629,4.174,1.108,6.306,1.424
							c8.626,1.272,15.637-0.252,20.834-4.521c8.421-6.924,15.048-20.656,15.757-32.649c0.126-2.08,0.07-4.06-0.161-5.916
							c59.451,30.941,63.91,31.766,65.701,32.094c7.948,1.474,20.627-3.494,26.119-12.982c2.644-4.571,5.609-13.974-4.253-25.555
							c-16.26-19.097-136.469-88.739-155.126-99.485c0.12-7.236-0.116-15.732-1.256-24.363
							c-2.928-22.182-10.746-37.838-23.252-46.523C900,403.504,871.906,404.62,856.465,406.076z M851.054,588.85
							c1.328,2.65,2.901,4.983,4.56,6.828c6.42,7.141,44.728,49.336,45.114,49.762l0.066,0.071c0.187,0.196,1.443,1.497,3.509,3.224
							c-0.179,5.523-1.991,9.968-5.412,13.225c-4.373,4.164-10.328,5.325-13.262,5.089c-5.418-0.435-10.625-4.191-11.615-4.94
							c-1.587-1.636-12.877-13.382-23.036-26.748c-19.233-25.304-17.292-33.673-16.238-35.632
							C840.506,588.981,847.811,588.459,851.054,588.85z M883.479,562.47c3.69,5.093,9.31,11.585,17.674,20.001
							c13.886,13.967,30.459,28.311,39.1,35.616c2.207,1.864,4.552,3.502,7,4.909c1.284,1.772,1.847,6.142,0.468,11.37
							c-1.954,7.409-6.886,13.25-13.191,15.617c-12.885,4.836-27.066-9.388-27.772-10.109c-1.503-1.656-38.734-42.665-45.043-49.683
							c-4.1-4.561-8.68-15.336-4.837-24.38c0.699-1.646,1.677-3.232,2.987-4.716C866.37,553.736,880.295,560.724,883.479,562.47z
							 M892.63,535.705l0.005,0.002c7.596,5.146,16.29,7.651,25.95,7.464l0.346-0.006l0.322-0.067
							c14.942,7.976,36.669,19.53,58.654,31.079c3.833,2.012,7.49,3.929,10.981,5.757c2.396,3.114,2.696,7.592,2.501,10.93
							c-0.254,4.268-1.448,8.876-3.273,13.17c-2.344,5.514-5.733,10.52-9.508,13.616c-3.332,2.743-8.182,3.663-14.422,2.743
							c-6.731-0.995-13.171-3.961-18.63-8.576c-8.328-7.037-24.323-20.868-37.859-34.413c-9.412-9.414-14.876-15.947-18.045-20.411
							c-0.013-0.019-0.027-0.038-0.041-0.057c-4.669-6.592-4.306-8.642-4.275-8.777C888.056,541.774,890.451,537.938,892.63,535.705
							z M931.506,488.768c49.398,28.502,136.674,80.793,149.229,95.539c5.025,5.907,6.169,11.336,3.395,16.125
							c-3.721,6.431-14.303,8.854-18.781,8.027c-4.38-0.919-34.118-15.646-71.302-35.076c-0.583-0.56-1.291-0.918-2.038-1.064
							c-21.713-11.364-45.387-23.898-67.008-35.446c0.255-0.599,0.499-1.234,0.738-1.916c2.513-7.232,4.206-19.29,5.024-35.854
							c0.027-0.587,0.106-1.554,0.207-2.779C931.121,494.426,931.324,491.85,931.506,488.768z"/>
					</g>
					<g>
						<path d="M825.764,597.643c-0.872,3.896-0.584,8.274,0.868,13.085l1.122-0.339c-2.14-7.089-1.651-13.161,1.454-18.044
							c5.792-9.109,18.838-11.111,18.969-11.13l0.616-0.09l-0.127-0.61c-0.034-0.162-3.288-16.341,5.449-24.423
							c9.494-8.783,20.921-5.277,23.115-4.485l0.398-1.103c-2.306-0.833-14.317-4.517-24.309,4.727
							c-8.352,7.727-6.454,21.811-5.912,24.926c-2.728,0.507-13.77,3.038-19.187,11.559
							C827.058,593.544,826.239,595.523,825.764,597.643z"/>
					</g>
					<g>
						<path d="M866.871,457.055c0.065,0.451,6.666,45.352,20.068,62.859c7.052,9.212,14.803,12.973,20.063,14.506
							c5.727,1.669,9.739,1.149,9.907,1.126l-0.158-1.162c-0.039,0.005-3.98,0.508-9.482-1.108
							c-5.075-1.49-12.561-5.142-19.399-14.075c-13.217-17.265-19.774-61.865-19.839-62.314L866.871,457.055z"/>
					</g>
					<g>
						<path d="M900.713,634.086c10.214,11.257,18.871,15.139,24.334,16.413c6.005,1.4,9.546,0.088,9.694,0.031l-0.418-1.095
							c-0.034,0.013-3.428,1.249-9.116-0.102c-5.279-1.255-13.664-5.055-23.626-16.034L900.713,634.086z"/>
					</g>
					<g>
						<path d="M931.94,600.827c9.532,8.395,18.218,14.199,25.814,17.25c6.145,2.468,11.611,3.158,16.247,2.051
							c8.001-1.911,10.678-8.404,10.788-8.679l-1.089-0.435l0.544,0.217l-0.544-0.218c-0.025,0.062-2.586,6.223-9.997,7.98
							c-6.959,1.65-19.72-0.315-40.989-19.047L931.94,600.827z"/>
					</g>
					<g>
						<path d="M733.041,541.134c-0.601,12.68,4.219,24.78,14.328,35.964c8.047,8.904,19.449,17.25,33.89,24.807
							c24.545,12.844,49.738,19.047,49.989,19.108l0.277-1.139c-0.25-0.061-25.322-6.236-49.741-19.017
							c-22.436-11.744-48.901-31.628-47.572-59.667L733.041,541.134z"/>
					</g>
					<g>
						<path d="M856.905,643.773c11.368,17.181,20.947,22.236,26.982,23.451c6.073,1.223,9.616-1.083,9.764-1.182l-0.65-0.976
							c-0.036,0.023-3.632,2.328-9.683,0.829c-5.659-1.402-14.665-6.49-25.436-22.769L856.905,643.773z"/>
					</g>
					<g>
						<path d="M1050.784,603.049c11.263,6.064,19.036,6.121,23.574,5.102c4.999-1.123,7.269-3.714,7.363-3.824l-0.889-0.765
							c-0.021,0.024-2.167,2.445-6.825,3.466c-4.332,0.949-11.781,0.851-22.667-5.011L1050.784,603.049z"/>
					</g>
					<g>
						
							<rect x="978.027" y="462.104" transform="matrix(0.5147 -0.8574 0.8574 0.5147 31.6241 1089.9628)" width="1.172" height="109.886"/>
					</g>
					<g>
						<path d="M882.55,412.472l0.061,1.171c14.373-0.756,22.719,4.737,27.189,9.477c4.854,5.148,6.333,10.555,6.347,10.61l1.133-0.3
							c-0.061-0.23-1.55-5.708-6.587-11.071C906.052,417.417,897.402,411.691,882.55,412.472z"/>
					</g>
					<g>
						
							<rect x="765.728" y="529.785" transform="matrix(0.9624 -0.2717 0.2717 0.9624 -118.2128 228.5911)" width="1.172" height="22.732"/>
					</g>
					<g>
						
							<rect x="776.358" y="537.404" transform="matrix(0.9624 -0.2717 0.2717 0.9624 -119.8842 231.7688)" width="1.172" height="22.732"/>
					</g>
				</g>
			</g>
			<g>
				<g>
					<g>
						<path style="fill:#ED7163;" d="M489.14,1249.387c0,0,59.564,31.474,99.656,15.856c40.092-15.618,2.203-76.283,2.785-75.481
							c0.582,0.802-58.525-46.919-71.061-43.947c-12.536,2.973-65.446,14.422-60.209,21.642
							C465.549,1174.676,489.14,1249.387,489.14,1249.387z"/>
					</g>
				</g>
				<g>
					<g>
						<path style="fill:#FE9F73;" d="M502.43,1255.048l-74.469,45.399l-56.722-105.861l79.181-51.679
							c0,0,54.451-41.448,68.67-50.537c14.221-9.091,51.905-22.962,66.847-27.683c4.392-1.387,9.473-4.013,14.457-7.033
							c11.971-7.247,23.386-16.747,23.386-16.747c1.707-1.001,3.303-1.744,4.784-2.256c17.514-6.044,19.247,20.29,7.673,35.458
							c-12.553,16.455-61.987,46.196-61.987,46.196s-4.845,30.449-36.65,60.868c-31.801,30.419-57.864,11.373-57.864,11.373
							L502.43,1255.048z"/>
					</g>
				</g>
				<g>
					<g>
						<path style="fill:#FE9F73;" d="M512.523,1196.599c0,0-25.854,6.978-23.768,20.785c2.086,13.807-25.624-18.149-24.635-18.866
							c0.989-0.717,12.94-45.602,18.726-40.746c5.786,4.856,26.155,18.372,24.754,25.801
							C506.199,1191.002,512.523,1196.599,512.523,1196.599z"/>
					</g>
				</g>
				<g>
					<g>
						<path d="M450.049,1142.422c0.545-0.415,54.634-41.568,68.711-50.566c14.505-9.272,53.27-23.415,66.992-27.751
							c3.903-1.233,8.723-3.579,14.325-6.973c11.792-7.139,23.198-16.599,23.312-16.694l0.082-0.057
							c1.695-0.994,3.341-1.77,4.893-2.306c7.027-2.425,10.87,0.344,12.856,3.093c2.541,3.517,3.525,9.175,2.698,15.523
							c-0.846,6.499-3.402,12.817-7.196,17.79c-12.166,15.948-57.761,43.693-61.92,46.205c-0.279,1.495-1.787,8.759-6.394,18.9
							c-4.755,10.464-13.886,26.249-30.386,42.03c-7.316,6.998-14.944,11.958-22.672,14.744c-6.203,2.235-12.482,3.082-18.663,2.517
							c-10.538-0.963-17.04-5.637-17.311-5.836l0.72-0.986c0.064,0.047,6.547,4.695,16.768,5.612
							c9.43,0.846,24.08-1.405,40.313-16.933c16.341-15.628,25.386-31.25,30.096-41.604c5.105-11.221,6.361-18.844,6.373-18.919
							l0.045-0.28l0.243-0.147c0.494-0.297,49.478-29.869,61.817-46.043c7.391-9.687,9.526-24.873,4.479-31.857
							c-2.501-3.462-6.466-4.38-11.467-2.654c-1.463,0.506-3.021,1.24-4.632,2.181c-0.75,0.62-11.898,9.791-23.421,16.767
							c-5.685,3.445-10.594,5.831-14.59,7.093c-13.676,4.321-52.294,18.405-66.702,27.615
							c-14.035,8.972-68.084,50.094-68.628,50.509L450.049,1142.422z"/>
					</g>
				</g>
				<g>
					<g>
						
							<rect x="444.069" y="1270.825" transform="matrix(0.8538 -0.5205 0.5205 0.8538 -592.3177 433.3698)" width="62.962" height="1.221"/>
					</g>
				</g>
				<g>
					<g>
						<g>
							<g>
								<g>
									<g>
										<path style="fill:#000100;" d="M479.405,1169.705c-0.209-0.069-0.378-0.243-0.429-0.473
											c-1.719-7.747,2.861-19.53,3.057-20.028c0.13-0.331,0.503-0.491,0.835-0.364c0.331,0.13,0.494,0.504,0.364,0.835
											c-0.047,0.118-4.631,11.917-2.998,19.278c0.077,0.347-0.142,0.691-0.489,0.768
											C479.628,1169.748,479.511,1169.74,479.405,1169.705z"/>
									</g>
								</g>
							</g>
						</g>
					</g>
				</g>
				<g>
					<g>
						<g>
							<g>
								<g>
									<g>
										<path style="fill:#000100;" d="M485.689,1176c-0.163-0.054-0.305-0.172-0.384-0.34c-3.349-7.194-1.42-19.688-1.336-20.216
											c0.056-0.351,0.386-0.591,0.737-0.535c0.352,0.055,0.591,0.386,0.535,0.737c-0.02,0.125-1.951,12.635,1.232,19.471
											c0.15,0.323,0.01,0.706-0.312,0.856C486.007,1176.044,485.839,1176.049,485.689,1176z"/>
									</g>
								</g>
							</g>
						</g>
					</g>
				</g>
				<g>
					<path style="fill:#49263E;" d="M241.807,1248.333l59.419,179.537l186.046-156.051c0,0-0.936-1.907-2.567-5.249
						c-0.086-0.181-0.177-0.363-0.269-0.551c-0.086-0.181-0.177-0.363-0.265-0.554c-10.565-21.652-44.858-92.25-52.1-110.583
						c-0.887-2.25-1.368-3.712-1.349-4.201C430.904,1146.199,283.501,1225.745,241.807,1248.333z"/>
				</g>
				<g>
					<g>
						<path style="fill:#223749;" d="M707.135,1217.696c0,0-67.478,45.611-97.379,47.73c-29.901,2.12-39.351-13.264-39.351-13.264
							l-46.224,26.912l-82.687-170.889l51.493-25.453c0,0,10.954-61.74,70.514-95.832c39.848-22.809,105.728,14.598,105.728,14.598
							l149.275-61.806c11.54-4.578,33.541-8.981,44.401-2.965c8.438,4.674,16.155,12.562,19.221,25.461
							c7.329,30.836-12.622,43.951-28.736,52.598l-41.354,21.331c0,0,11.804,23.101,4.26,54.606c0,0,28.493,40.516-7.817,66.628
							c0,0,7.349,23.962-4.749,40.633C784.798,1224.078,731.576,1221.629,707.135,1217.696z"/>
					</g>
					<g>
						<path style="fill:#309CC1;" d="M718.882,1238.444c0,0-67.478,45.61-97.379,47.73c-29.901,2.12-39.351-13.264-39.351-13.264
							l-48.223,27.304l-82.034-170.534l52.84-26.199c0,0,10.954-61.74,70.514-95.832c39.848-22.809,98.159,17.732,98.159,17.732
							l156.845-64.94c11.54-4.578,33.541-8.981,44.401-2.965c8.438,4.674,16.155,12.561,19.221,25.461
							c7.329,30.836-12.622,43.951-28.736,52.599l-41.354,21.331c0,0,28.676,24.491,4.26,54.606c0,0,28.493,40.515-7.817,66.627
							c0,0,7.349,23.962-4.749,40.633C796.544,1244.825,743.323,1242.377,718.882,1238.444z"/>
					</g>
					<g>
						<path style="fill:#FFFFFF;" d="M546.471,1057.723c-7.136,11.408-23.112,38.749-26.074,59.281l-33.27,14.614
							c-2.281,1.002-3.318,3.663-2.316,5.944c0.063,0.142,0.131,0.281,0.207,0.414c1.126,1.989,3.599,2.841,5.737,1.902
							l30.114-13.228l4.433,19.945c0.101,0.454,0.264,0.872,0.477,1.248c0.953,1.682,2.92,2.62,4.9,2.18
							c2.434-0.541,3.966-2.949,3.428-5.377l-5.13-23.094c0.02-0.352,0.05-0.713,0.083-1.078v-0.001
							c1.183-13.144,10.434-34.589,25.061-57.965c14.553-23.25,27.762-37.756,31.327-38.901c18.665-5.969,42.577,2.64,71.205,25.618
							c0.356,0.406,0.777,0.745,1.246,0.998c3.615,2.944,7.313,6.115,11.081,9.514c1.065,0.952,1.903,1.714,2.501,2.22
							c17.734,15.025,24.282,23.217,26.692,27.133c0.582,0.937,0.924,1.632,1.122,2.112c-6.25,7.885-14.127,12.649-23.984,14.505
							c-0.686,0.136-1.384,0.25-2.097,0.351c-37.564,5.377-87.249-32.166-87.747-32.55c-1.979-1.508-4.808-1.128-6.325,0.849
							c-1.508,1.979-1.128,4.808,0.849,6.325c2.151,1.641,53.167,40.215,94.486,34.303c0.172-0.023,0.335-0.049,0.504-0.078
							c0.989,5.683,3.825,11.556,6.959,17.09c0.904,1.597,2.329,3.139,5.059,4.343c-6.901,5.028-13.944,12.983-11.831,23.77
							c0.616,3.145,1.694,5.971,3.118,8.487c3.461,6.115,8.975,10.411,14.915,13.114c-3.839,5.962-6.171,15.555-0.486,28.133
							c0.173,0.382,0.364,0.758,0.572,1.125c2.138,3.776,6.14,6.763,12.056,8.982c-9.084,6.276-25.394,16.813-43.547,25.113
							c-24.461,11.183-57.399,20.54-75.402,1.605l-2.267-2.384l-38.438,18.554c-2.243,1.083-3.185,3.779-2.102,6.023
							c0.044,0.09,0.091,0.179,0.139,0.265c1.161,2.051,3.731,2.875,5.884,1.836l32.632-15.751
							c9.541,8.609,22.354,12.365,38.145,11.174c13.12-0.99,28.356-5.423,45.288-13.177c24.566-11.25,45.264-26.003,51.095-30.31
							c7.158,1.232,15.859,1.863,26.158,1.899c20.361,0.07,39.293-2.227,40.089-2.325l0.508-0.092
							c0.428-0.103,10.549-2.61,16.87-9.618c4.029-4.467,7.662-12.997,6.695-21.982c-0.465-4.319-2.153-10.089-7.095-15.673
							c8.036-3.326,16.928-9.296,20.131-19.85c2.997-9.877,0.635-21.129-6.312-30.094c-2.273-2.934-4.841-5.358-7.49-7.155
							c1.93-1.384,3.756-2.902,5.458-4.551c6.875-6.677,10.232-13.813,9.981-21.202c-0.413-11.977-7.966-26.939-17.957-35.573
							c-1.731-1.501-3.496-2.774-5.27-3.814c66.739-31.196,70.439-34.535,71.922-35.879c6.598-5.95,10.739-20.335,6.13-31.469
							c-2.221-5.362-8.444-14.235-25.142-13.37c-27.533,1.423-168.655,59.77-190.503,68.867
							c-6.234-4.942-13.805-10.415-22.099-15.189c-21.314-12.272-40.201-15.915-56.14-10.808
							C573.328,1018.014,555.523,1043.276,546.471,1057.723z M702.346,1184.617c3.2,0.612,6.287,0.799,9.006,0.585
							c10.523-0.828,72.949-6.052,73.578-6.105l0.105-0.01c0.296-0.032,2.271-0.259,5.159-0.906c4.7,3.848,7.367,8.401,7.923,13.563
							c0.711,6.6-2.257,12.571-4.424,14.975c-4.001,4.436-10.76,6.47-12.074,6.833c-2.489,0.291-20.285,2.292-38.739,2.222
							c-34.936-0.131-40.942-7.419-41.947-9.648C695.41,1193.909,699.837,1187.185,702.346,1184.617z M701,1138.689
							c6.911,0.184,16.333-0.38,29.268-2.053c21.47-2.781,45.065-7.654,57.214-10.313c3.102-0.679,6.099-1.632,8.964-2.827
							c2.405,0.064,6.594,2.493,10.234,7.191c5.159,6.657,6.959,14.865,4.81,21.949c-4.393,14.477-26.284,17.344-27.385,17.478
							c-2.45,0.205-63.121,5.281-73.462,6.095c-6.721,0.529-19.184-2.676-24.507-12.076c-0.969-1.71-1.7-3.624-2.118-5.759
							C681.943,1147.781,697.348,1140.3,701,1138.689z M683.761,1112.813l0.006-0.003c9.568-3.189,17.565-9.101,23.859-17.656
							l0.227-0.306l0.156-0.325c16.948-7.707,41.553-18.943,66.326-30.408c4.318-2,8.435-3.909,12.363-5.734
							c4.319-0.009,8.428,2.722,11.209,5.124c3.555,3.074,6.777,7.196,9.304,11.66c3.245,5.731,5.347,12.034,5.526,17.398
							c0.167,4.741-2.273,9.588-7.246,14.418c-5.367,5.208-12.26,8.845-19.936,10.525c-11.707,2.563-34.468,7.275-55.336,10.034
							c-14.505,1.92-23.859,2.322-29.873,2.103c-0.026-0.001-0.051-0.002-0.077-0.003c-8.873-0.332-10.419-2.019-10.516-2.136
							C686,1120.861,684.254,1116.208,683.761,1112.813z M668.79,1047.515c57.891-24.054,161.859-65.259,183.118-66.359
							c8.513-0.436,14.016,2.194,16.34,7.817c3.125,7.546-1.835,18.4-5.549,21.754c-3.73,3.208-36.459,19.314-78.268,38.773
							c-0.879,0.135-1.664,0.513-2.291,1.068c-24.43,11.351-51.192,23.631-75.721,34.779c-0.352-0.622-0.743-1.26-1.179-1.924
							c-4.63-7.027-14.021-16.564-27.929-28.35c-0.495-0.416-1.285-1.131-2.287-2.038
							C673.469,1051.633,671.357,1049.734,668.79,1047.515z"/>
					</g>
					<g>
						<path d="M693.115,1212.563c2.816,3.366,6.829,6.041,11.999,7.989l0.455-1.206c-7.616-2.872-12.587-7.357-14.774-13.33
							c-4.078-11.143,2.896-23.865,2.967-23.992l0.333-0.598l-0.617-0.297c-0.165-0.079-16.458-8.054-17.67-21.08
							c-1.318-14.155,9.379-21.783,11.537-23.168l-0.696-1.085c-2.268,1.456-13.511,9.474-12.124,24.372
							c1.16,12.453,14.718,20.212,17.799,21.821c-1.381,2.719-6.553,14.047-2.739,24.47
							C690.402,1208.694,691.581,1210.731,693.115,1212.563z"/>
					</g>
					<g>
						<path d="M597.913,1082.718c0.437,0.245,44.03,24.498,68.266,24.505c12.752,0.004,21.215-4.245,26.069-7.811
							c5.285-3.882,7.513-7.73,7.605-7.892l-1.119-0.639c-0.022,0.038-2.217,3.812-7.305,7.533
							c-4.693,3.433-12.883,7.524-25.25,7.52c-23.901-0.007-67.202-24.098-67.637-24.341L597.913,1082.718z"/>
					</g>
					<g>
						<path d="M775.013,1171.521c16.651-1.389,25.825-6.348,30.588-10.263c5.236-4.304,6.457-8.271,6.506-8.438l-1.235-0.368
							c-0.011,0.038-1.201,3.826-6.183,7.886c-4.624,3.768-13.544,8.544-29.784,9.899L775.013,1171.521z"/>
					</g>
					<g>
						<path d="M766.864,1122.04c13.697-2.707,24.567-6.406,32.308-10.995c6.261-3.712,10.517-8.021,12.65-12.807
							c3.681-8.259-0.196-14.935-0.363-15.215l-1.107,0.66l0.554-0.33l-0.554,0.329c0.037,0.063,3.702,6.417,0.281,14.058
							c-3.212,7.176-13.456,16.997-44.019,23.036L766.864,1122.04z"/>
					</g>
					<g>
						<path d="M581.825,1255.703c10.663,9,24.444,12.882,40.96,11.537c13.149-1.071,28.053-5.441,44.3-12.991
							c27.615-12.833,49.867-30.671,50.088-30.849l-0.809-1.003c-0.221,0.178-22.367,17.928-49.843,30.693
							c-25.245,11.728-60.286,21.531-83.865,1.629L581.825,1255.703z"/>
					</g>
					<g>
						<path d="M754.184,1216.224c22.591,1.564,33.405-3.416,38.499-7.87c5.126-4.482,5.483-9.115,5.495-9.31l-1.286-0.086
							c-0.003,0.047-0.396,4.725-5.749,9.003c-5.005,4.001-15.465,8.459-36.87,6.976L754.184,1216.224z"/>
					</g>
					<g>
						<path d="M848.243,1019.82c12.82-5.774,18.066-12.52,20.209-17.161c2.361-5.113,1.618-8.826,1.585-8.981l-1.261,0.264
							c0.007,0.035,0.685,3.525-1.538,8.272c-2.067,4.415-7.132,10.849-19.524,16.431L848.243,1019.82z"/>
					</g>
					<g>
						
							<rect x="664.56" y="1024.667" transform="matrix(0.93 -0.3676 0.3676 0.93 -326.1801 338.3334)" width="120.787" height="1.289"/>
					</g>
					<g>
						<path d="M569.488,1039.236l1.063,0.729c8.948-13.048,19.319-16.659,26.444-17.391c7.737-0.795,13.444,1.53,13.501,1.553
							l0.496-1.19c-0.242-0.101-6.017-2.463-14.064-1.652C589.514,1022.033,578.735,1025.754,569.488,1039.236z"/>
					</g>
					<g>
						
							<rect x="603.436" y="1214.185" transform="matrix(0.3695 -0.9292 0.9292 0.3695 -758.9955 1334.7386)" width="1.289" height="24.988"/>
					</g>
					<g>
						
							<rect x="617.19" y="1210.002" transform="matrix(0.3695 -0.9292 0.9292 0.3695 -746.4373 1344.8818)" width="1.289" height="24.988"/>
					</g>
				</g>
			</g>
		</g>
	</g>
</g>
</svg>
